<?xml version="1.0" encoding="utf-8"?>
<!-- Generator: Adobe Illustrator 23.0.6, SVG Export Plug-In . SVG Version: 6.00 Build 0)  -->
<svg version="1.1" id="Layer_1" xmlns="http://www.w3.org/2000/svg" xmlns:xlink="http://www.w3.org/1999/xlink" x="0px" y="0px"
	 viewBox="0 0 1000 1000" style="enable-background:new 0 0 1000 1000;" xml:space="preserve">
<style type="text/css">
	.st0{fill:#FFFFFF;}
	.st1{fill:url(#SVGID_1_);}
	.st2{fill:url(#SVGID_2_);}
	.st3{fill:#091440;}
	.st4{fill:url(#SVGID_3_);}
	.st5{fill:url(#SVGID_4_);}
</style>
<g id="Trim">
	<g id="Body_1_">
		<path class="st0" d="M498.5,799c-6.3,0-11.8-4.2-13.5-10.2c-3-10.9-5-21.7-6.5-30.8c-1.5-9.6-2.8-19.5-3.8-30.3
			c-0.9-10-1.6-20.1-2-30c-0.5-11.5-0.5-21.5,0.1-30.8c0.5-9.2,1.6-18.4,2.6-27.3c1.2-10.7,2.4-20.8,2.8-30.9
			c0.6-17.3,0-35.9-2-56.9c0,0-2-22.1-2-22.2l-0.6-7.3c-0.6-7.1-1-14.2-1.4-21.1c-0.2-2.8-0.3-5.6-0.5-8.4
			c-0.3-5.6-0.7-11.3-1.1-16.8c-1-13.8-2-28.1-2.2-42.4c-0.2-9.9-0.1-20,0.2-30c0.3-11,0.9-21,1.9-30.3c1.1-10.5,2.7-21,4.2-30.1
			l1.2-7.4c0.4-2.4,1-5.6,2-9c0.9-3.2,2.1-6.4,3.5-9.4c1.8-3.9,3.8-7.1,6.2-10.1c2.7-3.4,6.7-5.3,11-5.3h3c4.3,0,8.3,2,11,5.3
			c2.4,3,4.3,6.2,6.2,10.1c1.4,3,2.6,6.1,3.5,9.4c1,3.4,1.6,6.6,2,9l1.2,7.3c1.5,9.1,3.1,19.7,4.2,30.2c1,9.3,1.6,19.2,1.8,30.4
			c0.3,9.9,0.4,20,0.2,30c-0.3,14.2-1.3,28.5-2.2,42.4c-0.4,5.5-0.8,11.2-1.1,16.8c-0.2,2.8-0.3,5.6-0.5,8.4
			c-0.4,6.9-0.8,14.1-1.4,21.2c0,0-0.6,7.4-0.6,7.4l-2,22c-1.9,21-2.6,39.6-2,56.9c0.3,10.1,1.5,20.2,2.8,30.9
			c1,8.9,2.1,18.1,2.7,27.4c0.6,9.2,0.6,19.3,0.1,30.8c-0.4,9.8-1.1,20-2,30c-1,10.8-2.2,20.7-3.8,30.2c-1.5,9.2-3.5,20-6.5,30.9
			c-1.7,6-7.2,10.2-13.5,10.2L498.5,799L498.5,799z"/>
	</g>
	<g id="Wing">
		<path class="st0" d="M605.3,812.9c-4.5,0-9.1-0.9-13.3-2.6c-3.6-1.4-7.1-3.4-10.3-5.9c-0.1-0.1-0.2-0.2-0.3-0.2l-1.4-1.2
			c-0.2-0.2-0.4-0.3-0.5-0.5l-1.8-1.6c-0.6-0.5-1.3-1.1-2-1.9c-6-5.8-11.4-12.3-16.7-19.8c-4.3-6.1-8.5-13-12.7-21.1
			c-3.8-7.4-7.2-14.7-10-21.8c-5.4-13.1-10.1-27.5-14.5-43.9c-3.9-14.8-7.1-29.7-9.5-44.5c-1.3-8-2.4-15.3-3.3-22.3c0,0,0-0.1,0-0.2
			c-0.9-8-1.7-15.3-2.2-22.7c-0.4-7.3,4.8-13.7,12-14.7c0.7-0.1,1.3-0.1,2-0.1c6.5,0,12.2,4.5,13.7,11c6.7,30,14.4,57,23.4,82.3
			c2.8,7.6,5.2,13.9,7.5,19.5c3.1,7.4,5.8,13.4,8.5,18.9c3.1,6.4,6.3,12.3,9.6,17.8c3.5,5.8,7.1,11.1,10.8,15.9c3.9,5,7.9,9.4,12,13
			c0,0,0.1,0.1,0.2,0.1c0.5-0.3,1.1-0.7,1.8-1.2c2.1-1.4,4.5-3.2,7.5-5.5c1.1-0.8,2.2-1.7,3.3-2.6c4.8-3.8,9.8-7.6,15.2-11.4
			c7.5-5.3,15.3-9.6,23.1-13c9.1-3.9,18.3-6.4,27.4-7.6c4.1-0.5,8.3-0.8,12.5-0.8c0.6,0,1.2,0,1.8,0c2.3,0,4.6,0.2,7.1,0.4
			c0,0,1.7,0.2,1.7,0.2l1.7,0.1l0.3,0c0.2,0,0.3,0,0.4,0c0.1-0.1,0.3-0.3,0.5-0.5c1.2-1.4,2.9-4.7,4.3-9.9c1.2-4.7,2-10.3,2.4-17
			c0.3-6,0.2-12.3-0.3-18.6c-0.3-3.1-0.6-6.2-1.1-9.1c-0.5-3.3-1.1-6-1.7-8.1c-0.1-0.4-0.3-0.9-0.4-1.4c0-0.1-0.2-0.6-0.2-0.6
			l-0.1-0.2l-0.1-0.2c-0.3-0.6-0.5-1.2-0.8-1.9c-0.3-0.8-0.6-1.5-0.9-2.1c0,0-0.5-1-0.7-1.4c-0.5-1-0.9-1.9-1.3-2.6
			c0-0.1-1.3-2.4-1.3-2.4c-0.2-0.3-0.4-0.7-0.6-1l-0.5-0.8c-3.1-5.4-6.6-10.6-10.3-15.4c-3.5-4.6-7.7-9.3-12.8-14.4
			c-4.4-4.5-9.3-9-14.6-13.4c-18.6-15.6-41.4-30.2-69.7-44.8c-24.9-12.7-51.4-24-78.5-33.6c-6.9-2.4-10.8-9.7-8.9-16.8
			c1.7-6.2,7.3-10.4,13.5-10.4c0.8,0,1.7,0.1,2.5,0.2c7.5,1.4,14.9,3.1,22.3,5c0,0,0.1,0,0.2,0c7,1.8,14.3,3.9,21.8,6.1
			c14.2,4.3,28.6,9.4,42.9,15.2c31.8,13,58.3,27.7,81.1,44.9c14.2,10.8,25.8,21.6,35.6,33.3c5.9,7,10.8,13.8,14.9,20.6l0.5,0.8
			c0.4,0.7,0.8,1.3,1.2,2c0,0,1.5,2.7,1.5,2.7c0.9,1.6,1.7,3.2,2.5,4.6l0.5,1.1c0.8,1.5,1.4,2.9,2,4.2c0.3,0.5,0.5,1.1,0.8,1.6
			c0,0.1,0.4,0.9,0.4,0.9c0.1,0.1,0.1,0.3,0.2,0.4l0.3,0.8c0.2,0.5,0.4,1.1,0.6,1.6c0,0,0.2,0.5,0.2,0.6c0.4,1.1,0.8,2.3,1.2,3.7
			c0,0,0,0.1,0,0.1c2.9,9.9,4.1,19,4.8,25.9c0.8,8.5,1.1,16.9,0.8,25.2c-0.4,9.6-1.6,18.3-3.6,26.5c-1.3,5.1-2.9,9.8-4.9,14.3
			c-2.6,5.9-5.7,10.8-9.3,15.1c-4.6,5.5-10.4,10-16.9,12.9c-6.2,2.8-13.2,4.3-20.1,4.3c-0.3,0-0.6,0-1,0c0,0-2-0.1-2-0.1
			c-0.3,0-0.5,0-0.8,0c0,0-1.9-0.2-2-0.2l-2.6-0.3c-1.4-0.1-2.6-0.2-3.8-0.2c-0.5,0-0.9,0-1.3,0c-2.1,0-4.2,0.1-6.3,0.4
			c-4.9,0.5-9.8,1.8-14.9,3.9c-4.6,1.9-9.5,4.5-15.3,8.3c-4.3,2.8-8.8,6.1-13.4,9.5c-1.1,0.8-2.2,1.7-3.4,2.5
			c-3.6,2.6-6.8,4.9-10.6,7.2c0,0-0.1,0-0.1,0c-4.3,2.6-9.2,5.3-15.5,7.1c-3.9,1.1-7.8,1.7-11.6,1.7L605.3,812.9z"/>
		<path class="st0" d="M773.7,569.3c-7.4,0-15.2-0.3-24.7-0.8c-10.8-0.7-21.8-1.7-33.5-3.1c-20-2.3-41.3-5.6-65.3-10
			c-10.4-1.9-21.2-4-32.2-6.3c-10.2-2.1-21.2-4.4-32.1-7c-11.6-2.7-22-5.2-31.8-7.6l-1.7-0.4c-9.9-2.5-20.1-5.1-30.1-8
			c-7.2-2-11.5-9.3-9.8-16.6c1.5-6.5,7.2-10.9,13.6-10.9c0.8,0,1.6,0.1,2.4,0.2l2,0.4c9.8,1.7,19.9,3.4,29.8,5c12,2,22.4,3.6,31.9,5
			c3.1,0.5,6.3,0.9,9.5,1.4c7.4,1.1,15,2.2,22.4,3.3c11,1.5,21.7,2.9,31.8,4.2c23.8,2.9,44.6,5,63.5,6.4c11.3,0.8,26.2,1.7,41.1,1.7
			c7.4,0,14.2-0.2,20.7-0.6c5.3-0.4,10-0.9,14.1-1.5c4.8-0.8,8.7-1.7,11.8-2.8c2-0.7,3-1.3,3.5-1.5c0.1,0,0.2-0.1,0.2-0.1
			c0.1,0,0.2-0.1,0.5-0.4c0.3-0.2,0.7-0.6,0.9-0.8c0.1-0.1,0.1-0.2,0.2-0.2c1.5-1.6,3.1-4,4.5-7c3.6-7.7,5.5-17.5,6.8-25.1
			c1.4-8.4,2.4-17.7,3.2-30.1c1.1-15.9,1.8-32.5,2.4-48.5c0.2-5.2,0.4-10.4,0.7-15.6c0.5-10.8,1.1-21.9,1.8-32.8l0.3-4.2
			c0.1-1.9,0.3-3.6,0.5-5.1c0.4-3.1,0.9-6.2,1.5-9.6c1-5.3,2.3-10.9,4.1-17.6c2.6-9.5,5.5-18.6,8.3-27.4l1.5-4.6
			c3.3-10.5,6.3-20,8.6-29.4c1.2-5,2-9.3,2.5-13.1c0.6-4.9,0.3-7.9,0.1-9.5c-0.2-1-0.3-1.4-0.4-1.6c-0.1,0-0.1-0.1-0.2-0.1
			c-0.1-0.1-0.2-0.1-0.3-0.1c0,0-0.9-0.4-1.2-0.5c-0.1-0.1-0.3-0.1-0.4-0.2l-0.4-0.1c-0.8-0.3-1.6-0.6-2.3-0.8c-0.1,0-0.1,0-0.2-0.1
			c-6.3-2.1-13.5-3.2-21.3-3.2c-0.8,0-1.7,0-2.5,0c-8.4,0.2-17.6,1.6-27.3,3.9c-8.6,2.1-17.8,5-28.1,8.9
			c-8.9,3.4-18.1,7.4-27.9,12.2c-9.3,4.5-18.5,9.4-27.5,14.5c-8.2,4.6-17.1,9.9-27,16.1c-17,10.6-34.2,22.3-52.6,35.6
			c-8.5,6.1-17.1,12.5-25.7,19c-7.9,6-15.8,12.2-23.5,18.3l-1.9,1.5c-8,6.3-16.1,12.9-24.8,20.2c-7.7,6.3-15.7,13.1-24.5,20.8
			c-2.7,2.3-5.9,3.5-9.2,3.5c-3.7,0-7.3-1.4-10-4.3c-5.2-5.3-5.3-13.8-0.2-19.3c7.3-7.9,14.8-15.4,23.1-23.7c0,0,0,0,0.1-0.1
			c7.5-7.3,15.5-15,23.8-22.7c8.7-8.1,17.7-16,24.6-22c8.5-7.3,16.9-14.5,25.2-21.3c18.4-14.9,35.7-28,53-40
			c9-6.2,18.4-12.4,28-18.4c10.6-6.5,20.2-12,29.4-16.9c23.7-12.5,44.2-20.9,64.5-26.3c13.2-3.5,25.3-5.5,36.9-6
			c2-0.1,4.1-0.1,6.2-0.1c12,0,23.4,1.7,33.9,5c1.8,0.6,3.5,1.2,5,1.7c0.6,0.2,1.3,0.5,1.9,0.8c0,0,1.9,0.8,2,0.8
			c0.4,0.2,0.9,0.4,1.3,0.6l0.3,0.1c4.9,2.3,9.3,5.3,13.1,9c3.8,3.7,7.1,8.3,9.5,13.4c2,4.2,3.5,8.8,4.3,13.7
			c1.6,9,1.1,16.8,0.5,22.7c-0.6,5.9-1.7,11.9-3.2,18.9c-2.7,11.4-6,22.1-9.2,32.5l-1.5,4.7c-2.8,9-5.5,17.5-7.8,25.9
			c-1.5,5.5-2.5,9.9-3.3,14c-0.5,2.4-0.8,4.5-1,6.4c-0.1,1.1-0.2,2.1-0.3,3l-0.3,3.9c-0.7,10.7-1.3,21.5-1.9,32l-1.7,32.4
			c-0.6,11.1-1.3,22-2.3,33.1c-0.8,9.3-2.1,21.6-4.4,34.2c-1.2,6.6-2.6,12.6-4.2,18.1c-2.1,7.1-4.4,13.3-7.3,19
			c-3.9,7.8-8.5,14.1-13.9,19.4c-1.5,1.4-3.1,2.8-5.1,4.3c-2.1,1.6-4.2,3-6.2,4c-4.3,2.4-8.3,3.8-11.3,4.8c0,0-0.1,0-0.1,0
			c-5.9,1.9-12,3.2-19.8,4.2c-5.6,0.7-11.4,1.2-18.2,1.4C780.3,569.2,777,569.3,773.7,569.3z"/>
		<path class="st0" d="M520.6,602c0,0,17.9,137,73.6,183.8C620.1,807.5,644,742,706.1,749c42.9,4.8,37.8-76.8,28.9-98
			c-39.7-95.6-209-138.3-209-138.3S780,571,825,537c29-21.9,25-93.5,31-180c3.3-47.6,50.7-124.9,12-142c-109-48-338,177-338,177
			C491.4,458,485.5,527.7,520.6,602z"/>
	</g>
	<path id="Decred_1_" class="st0" d="M76,468.6c0-47.9,18.3-93.2,51.6-127.5c33.4-34.5,78.1-54,125.8-55c1.5,0,3,0,4.5,0
		c37.8,0,70.8,9.5,98,28.2c23.3,16,41.4,38,54.2,65.8l66.4-66.4c4.2-4.2,9.8-6.6,15.6-6.6c17.2,0,31.9,19.9,31.9,36.2v292.1
		c0,47.9-18.3,93.2-51.6,127.5c-33.4,34.5-78.1,54-125.9,55c-1.5,0-3,0-4.5,0c-37.8,0-70.8-9.5-98-28.2c-23.3-16-41.4-38-54.2-65.8
		L76,837.8V468.6z"/>
	<g id="Antennae">
		<path class="st0" d="M505.3,294.7c2.3-9.7,5.6-19.7,9.9-29.9c4.1-9.5,9-18.9,14.6-27.9c5.2-8.4,11.4-17,18.3-25.4
			c3.1-3.7,6.4-7.5,10.3-11.7c0,0,1.3-1.4,1.9-2c1.2-1.2,2.3-2.4,3.5-3.7c1.9-2,5.2-5.3,10.3-6.9c1.2-0.4,2.5-0.6,3.7-0.6
			c5.4,0,10.1,3.4,11.7,8.6c0.8,2.6,0.8,5.4-0.2,7.9c-1.8,5.1-5.2,8.1-7.2,9.9c-1.1,1-2.1,2-3.2,3.1c-0.6,0.6-1.3,1.2-1.9,1.8
			c-3.7,3.7-6.8,7-9.7,10.2c-6.3,7-12.2,14.4-17.6,22.1c-5.5,7.8-10.3,15.8-14.4,24c-4.1,8-7.8,16.7-10.9,26l-68,200.7L505.3,294.7z
			"/>
		<path class="st0" d="M475.5,300.2c-3.1-9.3-6.8-18-10.9-25.9c-4.2-8.3-9-16.3-14.5-24.1c-5.4-7.7-11.3-15.1-17.6-22
			c-2.9-3.2-6-6.6-9.7-10.2c-0.6-0.6-1.3-1.2-1.9-1.8c-1-1-2.1-2.1-3.2-3.1c-2-1.8-5.3-4.8-7.2-9.8c-2.3-6.4,1-13.5,7.3-15.8
			c1.4-0.5,2.8-0.7,4.2-0.7c1.3,0,2.5,0.2,3.7,0.6c5.2,1.6,8.4,4.9,10.3,6.9c1.2,1.2,2.3,2.4,3.5,3.6c0.6,0.6,1.9,2,1.9,2
			c3.9,4.2,7.2,8,10.3,11.7c7,8.5,13.1,17,18.4,25.4c5.6,9,10.5,18.4,14.5,27.8c4.3,10.2,7.6,20.3,9.9,29.9L543.6,501L475.5,300.2z"
			/>
	</g>
</g>
<g id="Decred">
	
		<linearGradient id="SVGID_1_" gradientUnits="userSpaceOnUse" x1="70.4856" y1="-2556.2002" x2="474.3272" y2="-2323.042" gradientTransform="matrix(1 0 0 -1 0 -1996)">
		<stop  offset="0" style="stop-color:#36BDBA"/>
		<stop  offset="0.93" style="stop-color:#39D8AA"/>
	</linearGradient>
	<path class="st1" d="M470.3,453.1c-0.4-6.5-0.6-13.1-0.8-19.6c-0.2-9.9-0.1-20,0.2-30c0.3-11,0.9-20.9,1.8-30.2
		c1-10.5,2.7-21,4.1-30l1.2-7.4c0.1-1,0.4-2.1,0.6-3.3L405,405c-23.9-71.4-78.9-105-147-105c-92.8,0-168,75.2-168,168v126l84-84v-42
		c0-22.4,8.7-43.5,24.6-59.4c15.9-15.9,37-24.6,59.4-24.6s43.5,8.7,59.4,24.6c15.9,15.9,24.6,37,24.6,59.4v113.4L470.3,453.1z"/>
	
		<linearGradient id="SVGID_2_" gradientUnits="userSpaceOnUse" x1="142.0367" y1="-2852.0366" x2="465.5917" y2="-2528.4817" gradientTransform="matrix(1 0 0 -1 0 -1996)">
		<stop  offset="0.2" style="stop-color:#2576F4"/>
		<stop  offset="1" style="stop-color:#3298DA"/>
	</linearGradient>
	<path class="st2" d="M475.8,727.6c-0.9-10-1.6-20.1-2-30c-0.5-11.4-0.5-21.5,0.1-30.7c0.5-9.2,1.6-18.4,2.6-27.3
		c1.2-10.7,2.4-20.8,2.8-31c0.6-17.3,0-35.9-2-57l-0.8-8.2L426,594v42c0,22.4-8.7,43.4-24.4,59.2c-15.3,15.3-36,24.3-57.7,24.8
		c-23.9,0.5-46.4-8.8-62.8-26.2C266,678,258,656.8,258,635V522.6l-168,168V804l105-105c24.4,72.9,81.2,106.4,151.3,105
		c53.5-1.1,100.6-27.5,130.4-67.6C476.3,733.5,476,730.6,475.8,727.6z"/>
</g>
<g id="Wing_right">
	<path class="st3" d="M526,512.7c7.2,1.3,14.3,3,21.5,4.8c7.1,1.8,14.2,3.8,21.2,6c14.1,4.3,28,9.2,41.7,14.8
		c27.3,11.2,53.9,25,78,43.1c12,9.1,23.4,19.3,33.3,31.1c5,5.9,9.6,12.1,13.6,18.8c0.5,0.8,1,1.7,1.5,2.5l1.4,2.6
		c1,1.7,1.8,3.5,2.7,5.2c0.9,1.7,1.7,3.6,2.5,5.4l0.3,0.7l0.3,0.8c0.2,0.5,0.4,1.1,0.6,1.6c0.4,1,0.7,2.1,1,3.1
		c2.4,8,3.5,15.6,4.3,23.3c0.8,7.7,1,15.4,0.7,23.2c-0.3,7.8-1.2,15.7-3.2,23.7c-1,4-2.3,8-4.1,12c-1.8,4-4.1,8-7.2,11.7
		c-3.1,3.7-7.3,7-12,9.2c-4.8,2.2-10.1,3.1-14.9,3l-1.8,0l-1.8-0.2l-2.6-0.3c-1.6-0.1-3.2-0.2-4.8-0.3c-3.2-0.1-6.4,0.1-9.5,0.4
		c-6.3,0.7-12.5,2.4-18.5,4.8c-6,2.5-11.9,5.7-17.6,9.5c-5.8,3.8-11.4,8-17.4,12.4c-3,2.2-6.2,4.5-9.6,6.6
		c-3.5,2.1-7.3,4.2-12.1,5.6c-2.4,0.7-5.1,1.1-7.9,1.1c-2.8,0-5.8-0.6-8.4-1.6c-2.6-1-4.9-2.4-6.9-3.9l-1.4-1.2l-1.1-1
		c-0.7-0.7-1.5-1.3-2.2-2c-5.7-5.5-10.7-11.6-15.1-17.9c-4.5-6.3-8.3-12.9-11.8-19.6c-3.5-6.7-6.6-13.5-9.4-20.5
		c-5.7-13.8-10.2-28-14-42.3c-3.8-14.3-6.9-28.7-9.3-43.2c-1.2-7.3-2.3-14.5-3.2-21.8c-0.8-7.3-1.7-14.6-2.1-21.9
		c6.4,28.6,14.2,56.7,23.9,84c2.5,6.8,5,13.6,7.8,20.2c2.8,6.7,5.7,13.2,8.8,19.6c3.1,6.4,6.5,12.7,10.1,18.8
		c3.6,6,7.5,11.9,11.8,17.3c4.2,5.5,8.8,10.5,13.8,14.9c0.6,0.6,1.3,1.1,1.9,1.6l1,0.8l0.7,0.5c1,0.7,1.8,1.1,2.7,1.4
		c0.8,0.3,1.5,0.4,2.4,0.3c0.8,0,1.8-0.2,2.9-0.6c2.2-0.7,4.8-2.2,7.5-4c2.7-1.8,5.5-3.9,8.3-6c5.7-4.4,11.5-9.1,17.9-13.5
		c6.3-4.4,13.3-8.4,20.7-11.6c7.5-3.2,15.5-5.5,23.7-6.5c4.1-0.5,8.2-0.7,12.3-0.7c2,0,4.1,0.1,6.1,0.3l1.5,0.1l1.3,0.1l1,0.1l0.9,0
		c4.9,0,8.3-1.6,11.5-5.3c3.2-3.7,5.7-9.5,7.2-15.6c1.6-6.2,2.4-12.9,2.8-19.7c0.4-6.8,0.3-13.7-0.3-20.5c-0.3-3.4-0.7-6.8-1.2-10.2
		c-0.5-3.3-1.2-6.6-2-9.6c-0.2-0.7-0.4-1.5-0.7-2.2c-0.1-0.3-0.2-0.7-0.3-1l-0.2-0.5l-0.2-0.6c-0.7-1.5-1.3-3.1-2-4.6
		c-0.7-1.5-1.4-3.1-2.2-4.5l-1.2-2.3c-0.4-0.8-0.8-1.5-1.3-2.2c-3.4-5.9-7.2-11.6-11.5-17.1c-4.3-5.5-8.9-10.6-13.8-15.6
		c-4.9-5-10.1-9.8-15.6-14.3c-21.8-18.2-46.6-33.3-72.3-46.5C580.5,533.8,553.6,522.4,526,512.7z"/>
	<path class="st3" d="M530,392c7.3-8,15-15.6,22.7-23.3c7.7-7.6,15.6-15,23.5-22.4c7.9-7.4,16-14.6,24.2-21.7
		c8.2-7.1,16.5-14.1,24.9-21c16.8-13.7,34.2-26.9,52.1-39.3c9-6.2,18.1-12.2,27.4-18c9.3-5.8,18.8-11.3,28.5-16.4
		c19.5-10.3,39.8-19.3,61.6-25.2c10.9-2.9,22.2-5,33.8-5.6c11.6-0.5,23.7,0.6,35.3,4.2c1.5,0.4,2.9,1,4.3,1.5
		c0.7,0.3,1.4,0.6,2.1,0.9l1.1,0.4c0.4,0.2,0.8,0.4,1.2,0.6c3.3,1.5,6.5,3.6,9.3,6.3c2.8,2.7,5,6,6.6,9.3c1.6,3.4,2.6,6.8,3.2,10.2
		c1.2,6.7,1,12.9,0.4,18.9c-0.6,5.9-1.7,11.6-3,17.2c-2.6,11-5.9,21.5-9.1,31.9c-3.3,10.4-6.5,20.5-9.3,30.6c-1.4,5-2.6,10.1-3.6,15
		c-0.5,2.5-0.9,4.9-1.2,7.4c-0.1,1.2-0.3,2.4-0.4,3.6l-0.3,4c-0.7,10.7-1.3,21.4-1.9,32.2l-1.7,32.4c-0.6,10.8-1.2,21.7-2.2,32.6
		c-1,10.9-2.2,21.9-4.2,33c-1,5.5-2.2,11.1-3.8,16.7c-1.6,5.6-3.6,11.2-6.3,16.6c-2.7,5.5-6.3,10.9-11.1,15.5
		c-1.2,1.2-2.5,2.3-3.8,3.3c-1.4,1-2.9,2.1-4.4,2.9c-3,1.7-6,2.8-8.9,3.8c-5.9,1.9-11.6,2.9-17.3,3.7c-5.7,0.7-11.3,1.1-16.9,1.3
		c-11.2,0.4-22.2,0-33.1-0.7c-11-0.7-21.8-1.7-32.7-3c-21.7-2.5-43.1-6-64.5-9.8c-10.7-2-21.3-4.1-31.9-6.3
		c-10.6-2.2-21.2-4.4-31.8-6.9c-10.6-2.4-21.1-4.9-31.6-7.5c-10.5-2.7-21-5.3-31.4-8.3c10.7,1.8,21.3,3.7,32,5.3
		c10.7,1.8,21.3,3.5,32,5.1c10.7,1.6,21.4,3.2,32,4.7s21.4,2.9,32.1,4.2c21.4,2.6,42.8,4.9,64.2,6.5c21.4,1.5,42.8,2.4,63.8,1
		c5.2-0.4,10.4-0.9,15.4-1.7c5-0.8,9.9-1.9,14.3-3.5c2.2-0.8,4.2-1.7,5.9-2.7c0.9-0.5,1.6-1,2.3-1.6c0.8-0.6,1.5-1.3,2.3-2
		c2.9-2.9,5.3-6.7,7.3-11c4-8.5,6.2-18.6,7.9-28.8c1.7-10.2,2.6-20.8,3.4-31.4c1.5-21.3,2.2-42.9,3.1-64.5
		c0.5-10.8,1.1-21.7,1.8-32.6l0.3-4.1c0.1-1.5,0.3-3,0.4-4.5c0.3-2.9,0.8-5.8,1.3-8.7c1.1-5.7,2.4-11.2,3.8-16.5
		c2.9-10.8,6.3-21.1,9.6-31.4c3.3-10.3,6.4-20.4,8.8-30.4c1.2-5,2.2-9.9,2.7-14.8c0.5-4.8,0.7-9.4,0-13.4c-0.3-2-0.8-3.8-1.5-5.3
		c-0.7-1.5-1.6-2.8-2.6-3.9c-1.1-1.1-2.4-2-4-2.8c-0.2-0.1-0.4-0.2-0.6-0.3l-0.8-0.4c-0.5-0.2-1.1-0.5-1.6-0.7
		c-1.1-0.4-2.2-0.9-3.3-1.2c-9-3-18.8-4.2-28.7-3.9c-10,0.3-20.1,1.9-30.2,4.3c-10,2.4-20,5.7-29.8,9.4c-9.8,3.8-19.5,8-29.1,12.7
		c-9.5,4.7-19,9.6-28.3,14.9c-9.3,5.2-18.5,10.8-27.6,16.4c-18.2,11.4-35.9,23.5-53.4,36.1c-8.8,6.3-17.4,12.7-26,19.2
		c-8.6,6.5-17,13.2-25.5,19.9c-8.5,6.7-16.8,13.5-25.1,20.5C546.4,377.9,538.2,384.9,530,392z"/>
	
		<linearGradient id="SVGID_3_" gradientUnits="userSpaceOnUse" x1="518.4356" y1="-2628.9402" x2="725.7271" y2="-2695.8198" gradientTransform="matrix(1 0 0 -1 0 -1996)">
		<stop  offset="0.2893" style="stop-color:#2576F4"/>
		<stop  offset="0.7544" style="stop-color:#3092DF"/>
		<stop  offset="0.8516" style="stop-color:#3298DA"/>
	</linearGradient>
	<path class="st4" d="M545.6,539.7c0,0,84.2,30.8,125.4,65.3c40.4,33.8,56.5,92.5,40.4,113.8c-18.9,25.1-27.2-26.6-51-61.8
		C627.9,608.8,545.6,539.7,545.6,539.7z M541.5,597.5c0,0,5.4,41.7,15.5,83.8c9.9,41.2,45.5,101.7,64,77.2
		c14.2-18.8-5.9-36.4-22.7-66.2C575.2,651.6,541.5,597.5,541.5,597.5z M547.5,572.5c0,0,33.2,56.4,59.8,101.1
		c17.7,29.7,33,54.7,45.1,52.6c29.8-5.2,4.2-50.3-23.4-83.2C594.7,602.1,547.5,572.5,547.5,572.5z"/>
	
		<linearGradient id="SVGID_4_" gradientUnits="userSpaceOnUse" x1="612.5843" y1="-2508.677" x2="907.3458" y2="-2261.343" gradientTransform="matrix(1 0 0 -1 0 -1996)">
		<stop  offset="0" style="stop-color:#36BDBA"/>
		<stop  offset="0.4983" style="stop-color:#39D8AA"/>
	</linearGradient>
	<path class="st5" d="M599,379.3c0,0,77-75.3,128.9-110.5c50.8-34.5,107.6-50.2,128.3-29.6c25.9,25.9-34.3,51.6-81.4,67
		C710.3,327.4,599,379.3,599,379.3z M615.5,489.7c0,0,20.6,12.6,83.4,26.4c61.5,13.5,117.3,17.7,123.4-11.6
		c5.4-25.8-33.5-26.5-79-24.6C686.3,482.4,615.5,489.7,615.5,489.7z M745.8,399.8c48.6-6.9,80.5-10.7,88.1-53.1
		c7.7-42.8-75.3-17-129.8,10.1c-55.6,27.7-87.9,56.3-87.9,56.3S694.4,407.1,745.8,399.8z M747,463.1c38.9,3.5,85.6,11.3,74.9-29.8
		c-5.9-22.7-38.2-23.3-80.1-17.4c-53.2,7.4-117.6,36.3-117.6,36.3S693.3,458.4,747,463.1z M550.5,489.8c-2.5,1.5-3.1,3-3.5,5
		c-0.4,2.3-0.8,6,2,8.3c3.9,3.3,51.5,4.1,51.5,4.1s-14.5-11.8-22.1-15.3c-3.1-1.4-11.8-3.2-17-3.4
		C556.8,488.4,553,488.3,550.5,489.8z M553.3,465.1c-2.5,1.7-2.4,5-2.5,7.8c0,2.4,0,5.4,3.5,6.9c2.2,0.9,13.2,0.1,26.2-0.6
		c10.8-0.6,30-5.4,30-5.4s-32.4-9.9-37.7-9.8C568.1,464,555.9,463.4,553.3,465.1z M577.3,454.7c5.3-0.8,35-17.8,35-17.8
		s-19.8-2-30.6-0.8c-13,1.4-22.3,2.7-25,4c-3.6,1.7-3.9,4.8-3.4,7.5c0.6,3.1,2.3,6.4,5.1,7.9C561.2,456.9,572.7,455.4,577.3,454.7z
		 M554.3,418.3c-1.4,3.1-0.8,5.9,0.8,8.7c1.4,2.5,2.4,3.2,6.6,3.8c2.9,0.4,14.4-3.8,26.2-11.4C597.7,413,613,398,613,398
		s-36,7.6-42.1,9.7C566.1,409.3,555.6,415.2,554.3,418.3z M547.9,394.9c-1.1,3.5-1.3,5.7,0.5,7.5c2.2,2.2,3.6,3.3,6.8,3.3
		c2.9,0,14.3-8.2,25.5-18.5c9.3-8.6,23.1-28.5,23.1-28.5s-34.2,16.8-39.8,21.1C559.8,383.2,549,391.4,547.9,394.9z"/>
</g>
<g id="Body">
	<path class="st3" d="M501.5,316c1.9,2.4,3.3,4.9,4.5,7.3c1.1,2.4,2,4.9,2.7,7.3c0.7,2.4,1.2,4.9,1.6,7.3l1.2,7.3
		c1.6,9.8,3.1,19.5,4.1,29.3c1,9.8,1.5,19.5,1.8,29.3c0.3,9.8,0.4,19.5,0.2,29.3c-0.4,19.5-2.1,39.1-3.3,58.6
		c-0.6,9.8-1.1,19.5-1.9,29.3l-0.6,7.3l-0.7,7.3l-1.3,14.7c-1.8,19.5-2.7,39.1-2,58.6c0.7,19.5,4.3,39.1,5.4,58.6
		c0.6,9.8,0.5,19.5,0.1,29.3c-0.4,9.8-1.1,19.5-2,29.3s-2.1,19.5-3.7,29.3c-1.6,9.8-3.4,19.5-6.1,29.3h-3
		c-2.7-9.8-4.5-19.5-6.1-29.3c-1.6-9.8-2.7-19.5-3.7-29.3s-1.6-19.5-2-29.3c-0.4-9.8-0.5-19.5,0.1-29.3c1.2-19.5,4.7-39.1,5.4-58.6
		c0.7-19.5-0.2-39.1-2-58.6l-1.3-14.7l-0.7-7.3l-0.6-7.3c-0.8-9.8-1.3-19.5-1.9-29.3c-1.2-19.5-3-39.1-3.3-58.6
		c-0.2-9.8-0.1-19.5,0.2-29.3c0.3-9.8,0.8-19.5,1.8-29.3c1-9.8,2.5-19.5,4-29.3l1.2-7.3c0.4-2.4,0.9-4.9,1.6-7.3
		c0.7-2.4,1.6-4.9,2.7-7.3c1.1-2.4,2.5-4.9,4.5-7.3H501.5z"/>
	<path class="st3" d="M515,297c2.3-9.6,5.5-19.1,9.4-28.3c4-9.1,8.6-18,13.9-26.5s11.2-16.6,17.5-24.3c3.2-3.9,6.5-7.6,9.9-11.3
		c1.7-1.8,3.4-3.6,5.2-5.4s3.6-3.5,6.2-4.4c1.2-0.4,2.5,0.3,2.8,1.5c0.2,0.5,0.1,1,0,1.5l0,0.1c-0.9,2.6-2.7,4.3-4.5,5.9
		c-1.8,1.7-3.5,3.4-5.3,5.1c-3.5,3.5-6.8,7-10.1,10.6c-6.6,7.3-12.7,14.9-18.3,23c-5.7,8-10.7,16.5-15.2,25.2
		C522,278.5,518.2,287.6,515,297z"/>
	<path class="st3" d="M485,297c-3.2-9.4-7-18.5-11.5-27.3c-4.4-8.8-9.5-17.2-15.2-25.3c-5.6-8-11.8-15.7-18.3-23
		c-3.3-3.6-6.7-7.2-10.1-10.6c-1.8-1.7-3.5-3.4-5.3-5.1c-1.8-1.6-3.6-3.3-4.5-5.9l0-0.1c-0.4-1.2,0.2-2.5,1.4-2.9
		c0.5-0.2,1-0.2,1.5,0c2.6,0.8,4.4,2.6,6.2,4.4s3.5,3.6,5.2,5.4c3.4,3.7,6.7,7.4,9.9,11.3c6.4,7.7,12.3,15.8,17.5,24.3
		c5.3,8.5,9.9,17.4,13.9,26.5C479.5,277.9,482.7,287.4,485,297z"/>
</g>
</svg>
