<?xml version="1.0" encoding="utf-8"?>
<!-- Generator: Adobe Illustrator 23.0.6, SVG Export Plug-In . SVG Version: 6.00 Build 0)  -->
<svg version="1.1" id="Layer_1" xmlns="http://www.w3.org/2000/svg" xmlns:xlink="http://www.w3.org/1999/xlink" x="0px" y="0px"
	 viewBox="0 0 1000 1000" style="enable-background:new 0 0 1000 1000;" xml:space="preserve">
<style type="text/css">
	.st0{fill:#091440;}
	.st1{fill:url(#SVGID_1_);}
	.st2{fill:url(#SVGID_2_);}
	.st3{fill:#091440;stroke:#091440;stroke-width:40;stroke-miterlimit:10;}
	.st4{fill:url(#SVGID_3_);}
	.st5{fill:url(#SVGID_4_);}
</style>
<g id="Butterfly">
	<path class="st0" d="M536.5,368.2c6.6-8.1,13.2-16.2,19.9-24.2c45.5-54.4,95.2-104.6,150.3-149.4c32.2-26.2,66-50.3,102.7-69.9
		c19.9-10.6,40.4-19.9,62.7-24.5c13-2.7,26-3.3,38.7,1.3c16.8,6.1,26.4,18.8,31.8,35.3c2.9,8.9,3.7,18.1,3.8,27.3
		c0.4,22.1-0.5,44.2-3.2,66.2c-3.1,25.3-6,50.6-10.4,75.6c-9,51.6-20.8,102.6-40.9,151.2c-4.9,11.8-11.1,23.1-17.4,34.3
		c-7.5,13.5-19.2,22.5-33.2,28.7c-20.8,9.2-42.5,15.3-64.7,19.7c-20.5,4.1-41.1,7.7-61.8,10.7c-17.3,2.5-34.7,3.9-52,5.7
		c-9.1,0.9-18.2,1.4-27.3,2.2c-0.9,0.1-1.8,0.4-2.5,0c21,4.5,42.1,8.3,62.9,13.6c35.7,9.1,69.8,22.6,100.8,43
		c25.4,16.7,47.2,36.9,61.4,64.4c10.8,20.9,14.8,43.1,12.3,66.5c-3.1,28.5-14.9,53.6-30.9,76.9c-21.9,31.7-50.5,55.3-86.7,69.1
		c-20.8,8-42.4,11.4-64.6,9.7c-28.5-2.2-52.1-14.2-71.1-35.8c-21.4-24.5-38.8-51.7-54.8-79.9c-13.3-23.5-25-47.7-35.4-73.5
		c-1.1,4.8-1.9,9-2.9,13c-4.2,17-9.4,33.7-19.1,48.5c-4.9,7.5-4,8.1-9.3-0.1c-10.5-16.3-15.9-34.5-20.2-53.2
		c-0.6-2.5-1.1-5.1-1.7-8.3c-1.6,3.7-2.9,6.9-4.2,10c-18,42.2-39.9,82.3-66.9,119.5c-10.9,15-22.6,29.3-37.4,40.7
		c-12.6,9.7-27.1,15.1-42.6,17.5c-31.5,4.9-61.4-1.1-89.9-14.9c-31.1-15.2-55.5-37.9-74.4-66.7c-12.4-18.9-22-39-26.4-61.3
		c-6.3-31.4-0.8-60.7,16.1-87.8c14.1-22.6,33.6-40,55.7-54.4c33.5-21.9,70.4-35.8,109-45.1c18.1-4.4,36.5-7.5,54.5-11.2
		c-0.5-0.1-1.4-0.3-2.3-0.4c-21.9-2-43.8-3.4-65.6-6.3c-24.1-3.1-48.1-7.1-72-11.5c-22.7-4.2-44.8-10.7-66.3-19.4
		c-20.9-8.5-33.7-24.4-43.4-43.8C104,450.8,95,422.8,86.9,394.4c-8-28.3-14.3-57-19.3-85.9c-3.6-20.7-6.4-41.6-9.1-62.5
		c-3.7-28.3-5.3-56.8-4.6-85.4c0.4-15.3,3.6-29.8,12.9-42.3c9.4-12.7,22.3-18.9,37.8-19.9c20.4-1.3,39.1,5,57.5,12.7
		c30.2,12.6,57.9,29.7,84.6,48.3c42.9,30,82.4,64.1,119.7,100.8c34.4,33.8,66.5,69.6,96.5,107.5c0.3,0.4,0.5,0.8,0.7,1.2
		c0.3-0.1,0.5-0.3,0.8-0.4c-0.9-3.7-1.9-7.4-2.6-11.2c-1.9-9.7-3.9-19.5-5.2-29.3c-1.1-8.1,0.2-15.8,7-21.6c0.5-0.4,0.1-2.6-0.4-3.6
		c-10.8-19.7-21.6-39.4-32.4-59c-10.5-19.1-21-38.1-31.5-57.2c-4.9-8.9-1.1-18.1,8.2-20.1c5.6-1.2,11,1.6,14.4,7.7
		c5.9,10.7,11.7,21.4,17.6,32c16.2,29.4,32.5,58.8,48.5,88.4c2.3,4.2,4.4,5.4,8.9,4.8c3.5-0.5,7.2,0.1,10.8,0.1
		c0.9,0,2.2-0.6,2.6-1.3c7.4-13.4,14.7-26.9,22-40.4c15.3-27.8,30.5-55.6,46-83.2c1.6-2.8,4.1-5.4,6.8-7.1
		c4.7-2.7,10.9-1.2,14.5,2.7c4,4.3,4.7,10,1.7,15.7c-4.4,8-8.8,16-13.2,24c-17,30.9-34,61.9-51.1,92.8c-1.1,2-1.4,3.3,0.7,5
		c4.7,3.9,6,9.4,6.1,15.2c0.2,11.5-2.8,22.6-5.3,33.7c-0.8,3.8-1.7,7.6-2.6,11.5C536,368,536.2,368.1,536.5,368.2z M564.5,575.9
		c-0.2-0.2-0.5-0.4-0.7-0.6c-9.5,0-19-0.1-28.5,0c-4.7,0-4.9,0.5-4.7,5.4c0.8,17.6,2.4,35.1,2.2,52.7c-0.2,19.5,4.1,37.8,10.4,55.8
		c7.1,20.3,15.4,40.2,25.1,59.4c11.5,22.9,24.2,45,39.4,65.7c5,6.4,9.8,12.9,14.9,19.2c2.7,3.3,5.8,6.2,8.7,9.2l0,0
		c0.1,0.2,0.3,0.4,0.4,0.7c10.9,12.3,24,21.1,40.1,25.7c25.3,7.3,49.3,4.3,72.3-8c15.4-8.2,28.3-19.5,39.7-32.5
		c10.8-12.4,19.7-26,27.5-40.4c7.1-13.2,12.6-26.9,14.8-41.8c0.3-2.3,0.6-4.6,0.9-6.9c0.9-8.4-0.2-16.7-1.8-24.9
		c-0.5-2.3-1-4.6-1.7-6.8c-6.3-19.9-18.5-35.9-33.2-50.2c-24.8-24.4-54.5-41.2-86.5-54.1c-26.7-10.7-54.4-18.1-82.9-22.6
		C602.2,578,583.4,575.5,564.5,575.9L564.5,575.9z M391.6,814.5c0.9-1,1.9-1.9,2.7-3c10.9-15.7,21-32,30-48.9
		c14.1-26.6,26.2-54.1,35.4-82.8c3.7-11.4,6.6-23,7.2-35c1-20.3,1.5-40.6,2.1-60.8c0.2-1.8,0.4-3.5,0.6-5.2c0.3-2.5-0.9-3.5-3.3-3.5
		c-10,0-19.9,0-29.9,0c-14.7,1.2-29.5,1.8-44.1,3.6c-20.8,2.5-41.3,7-61.5,12.8c-22,6.3-43.2,14.4-63.4,25c-28,14.6-53.4,32.8-73,58
		c-8.6,11-15.4,23-18.9,36.7c-0.4,0.5-1,0.9-1.1,1.5c-0.6,3.7-1.4,7.5-1.4,11.2c0.1,8,0.6,15.9,1,23.9c1.8,6.7,3.1,13.6,5.4,20.2
		c4.2,12.7,10.9,24.2,18,35.5c12.2,19.3,26.6,36.6,45.4,49.8c26.4,18.5,54.9,25.1,86.4,15.5c15.8-4.8,28.8-13.6,39.2-26.2
		c3-3.2,6.1-6.3,8.9-9.7C382.3,826.8,386.9,820.6,391.6,814.5z M85,164.1c-0.5,22.3,0.7,44.6,3.9,66.7c3.2,22.2,6.7,44.3,10.7,66.3
		c2.7,14.9,6.4,29.7,9.9,44.5c1.5,6.6,3.5,13,5.3,19.5c2.4,9,4.9,18.1,7.3,27.1c0.9,2.8,1.8,5.6,2.8,8.3
		c7.1,19.2,16.1,37.5,27.9,54.3c5.7,8.2,11.9,16.2,19.9,22.4c12.2,9.5,25.6,16.8,39.7,23c14.9,6.6,30.4,11.5,46.3,14.6
		c19.3,3.7,38.5,7.2,57.9,10.4c17.6,2.9,35.2,5.3,52.8,8c1.2,0.2,2.3,0.5,3.5,0.6c2.2,0.2,4.5,0.1,6.7,0.2
		c9.2,0.8,18.5,1.6,27.7,2.4c20.1,0,40.2,0.1,60.3,0.1c1.5,0,3.4,0.6,3-2.5c-1.9-13.7-3.4-27.5-5.4-41.2c-3.4-24.1-7-48.2-10.8-72.2
		c-0.7-4.3-0.1-9-3.3-12.9c-16.8-20.3-33-41-50.5-60.8c-17.7-20.1-36.2-39.5-55.2-58.5c-17.3-17.2-35.6-33.4-53.5-50
		c-0.9-0.8-1.8-1.7-2.7-2.5c-5.8-4.9-11.6-9.7-17.5-14.5c-0.3-0.4-0.5-0.8-0.8-1c-21.4-17.4-43.4-34-66.8-48.7
		c-21.3-13.4-43.3-25.4-67.4-33.1c-9.3-2.9-18.6-5.4-28.4-5.3c-5.1,0.1-9.9,0.9-13.6,4.8c-1.4,1.5-3.3,2.8-4.2,4.5
		C86.1,146.6,85.1,155.3,85,164.1z M885.4,360.5c1.5-5.8,3.1-11.5,4.4-17.3c5.6-26.2,11.8-52.3,16.5-78.6c3.5-20,5.7-40.4,7.4-60.6
		c1.2-15,0.6-30.1,0.9-45.2c-0.2-1.8-0.4-3.6-0.5-5.3c-0.7-7.7-3.3-14.6-9.3-19.8c-2.6-1.2-5.2-3.2-7.9-3.4
		c-6-0.4-12.2-0.6-18.1,0.6c-23.5,4.6-44.7,14.8-65.4,26.4c-20.1,11.3-39.2,24.3-57.5,38.2c-9.4,7.1-18.5,14.7-27.7,22.1
		c-2.6,2.1-5.2,4.1-7.7,6.2c-4.1,3.5-8.2,7.2-12.2,10.8c-0.7,0.4-1.4,0.7-2,1.2c-7.4,6.6-14.8,13.2-22.1,19.9
		c-26.5,24.6-52.1,50.1-76,77.3c-20.3,23.1-39.5,47.1-59.2,70.8c-0.9,1.1-1.7,2.5-2,3.8c-1.9,11.5-3.7,22.9-5.3,34.4
		c-4.1,29-8,58-12.2,87c-0.4,2.9,0.4,3.7,3.2,3.7c19.9-0.1,39.7-0.1,59.6-0.2c11.8-1,23.7-2,35.5-3c0.3,0,0.6,0,1,0
		c0.3-0.1,0.5-0.2,0.8-0.2c6.5-0.8,13-1.3,19.4-2.4c27-4.5,53.9-9.4,80.9-13.9c23.6-3.9,46.3-10.6,67.7-21.4
		c12.7-6.4,25.3-13.1,35.4-23.3c11.7-11.7,20.3-25.7,28.1-40.2c7-13.1,12.9-26.8,17-41.1C880.4,378.1,882.9,369.3,885.4,360.5z
		 M535.6,369l0.1-0.2l-0.1,0L535.6,369z"/>
	<path class="st0" d="M536.5,368.2c6.6-8.1,13.2-16.2,19.9-24.2c45.5-54.4,95.2-104.6,150.3-149.4c32.2-26.2,66-50.3,102.7-69.9
		c19.9-10.6,40.4-19.9,62.7-24.5c13-2.7,26-3.3,38.7,1.3c16.8,6.1,26.4,18.8,31.8,35.3c2.9,8.9,3.7,18.1,3.8,27.3
		c0.4,22.1-0.5,44.2-3.2,66.2c-3.1,25.3-6,50.6-10.4,75.6c-9,51.6-20.8,102.6-40.9,151.2c-4.9,11.8-11.1,23.1-17.4,34.3
		c-7.5,13.5-19.2,22.5-33.2,28.7c-20.8,9.2-42.5,15.3-64.7,19.7c-20.5,4.1-41.1,7.7-61.8,10.7c-17.3,2.5-34.7,3.9-52,5.7
		c-9.1,0.9-18.2,1.4-27.3,2.2c-0.9,0.1-1.8,0.4-2.5,0c21,4.5,42.1,8.3,62.9,13.6c35.7,9.1,69.8,22.6,100.8,43
		c25.4,16.7,47.2,36.9,61.4,64.4c10.8,20.9,14.8,43.1,12.3,66.5c-3.1,28.5-14.9,53.6-30.9,76.9c-21.9,31.7-50.5,55.3-86.7,69.1
		c-20.8,8-42.4,11.4-64.6,9.7c-28.5-2.2-52.1-14.2-71.1-35.8c-21.4-24.5-38.8-51.7-54.8-79.9c-13.3-23.5-25-47.7-35.4-73.5
		c-1.1,4.8-1.9,9-2.9,13c-4.2,17-9.4,33.7-19.1,48.5c-4.9,7.5-4,8.1-9.3-0.1c-10.5-16.3-15.9-34.5-20.2-53.2
		c-0.6-2.5-1.1-5.1-1.7-8.3c-1.6,3.7-2.9,6.9-4.2,10c-18,42.2-39.9,82.3-66.9,119.5c-10.9,15-22.6,29.3-37.4,40.7
		c-12.6,9.7-27.1,15.1-42.6,17.5c-31.5,4.9-61.4-1.1-89.9-14.9c-31.1-15.2-55.5-37.9-74.4-66.7c-12.4-18.9-22-39-26.4-61.3
		c-6.3-31.4-0.8-60.7,16.1-87.8c14.1-22.6,33.6-40,55.7-54.4c33.5-21.9,70.4-35.8,109-45.1c18.1-4.4,36.5-7.5,54.5-11.2
		c-0.5-0.1-1.4-0.3-2.3-0.4c-21.9-2-43.8-3.4-65.6-6.3c-24.1-3.1-48.1-7.1-72-11.5c-22.7-4.2-44.8-10.7-66.3-19.4
		c-20.9-8.5-33.7-24.4-43.4-43.8C104,450.8,95,422.8,86.9,394.4c-8-28.3-14.3-57-19.3-85.9c-3.6-20.7-6.4-41.6-9.1-62.5
		c-3.7-28.3-5.3-56.8-4.6-85.4c0.4-15.3,3.6-29.8,12.9-42.3c9.4-12.7,22.3-18.9,37.8-19.9c20.4-1.3,39.1,5,57.5,12.7
		c30.2,12.6,57.9,29.7,84.6,48.3c42.9,30,82.4,64.1,119.7,100.8c34.4,33.8,66.5,69.6,96.5,107.5c0.3,0.4,0.5,0.8,0.7,1.2
		c0.3-0.1,0.5-0.3,0.8-0.4c-0.9-3.7-1.9-7.4-2.6-11.2c-1.9-9.7-3.9-19.5-5.2-29.3c-1.1-8.1,0.2-15.8,7-21.6c0.5-0.4,0.1-2.6-0.4-3.6
		c-10.8-19.7-21.6-39.4-32.4-59c-10.5-19.1-21-38.1-31.5-57.2c-4.9-8.9-1.1-18.1,8.2-20.1c5.6-1.2,11,1.6,14.4,7.7
		c5.9,10.7,11.7,21.4,17.6,32c16.2,29.4,32.5,58.8,48.5,88.4c2.3,4.2,4.4,5.4,8.9,4.8c3.5-0.5,7.2,0.1,10.8,0.1
		c0.9,0,2.2-0.6,2.6-1.3c7.4-13.4,14.7-26.9,22-40.4c15.3-27.8,30.5-55.6,46-83.2c1.6-2.8,4.1-5.4,6.8-7.1
		c4.7-2.7,10.9-1.2,14.5,2.7c4,4.3,4.7,10,1.7,15.7c-4.4,8-8.8,16-13.2,24c-17,30.9-34,61.9-51.1,92.8c-1.1,2-1.4,3.3,0.7,5
		c4.7,3.9,6,9.4,6.1,15.2c0.2,11.5-2.8,22.6-5.3,33.7c-0.8,3.8-1.7,7.6-2.6,11.5C536,368,536.2,368.1,536.5,368.2z M535.6,369
		l0.1-0.2l-0.1,0L535.6,369z"/>
	
		<radialGradient id="SVGID_1_" cx="500.06" cy="277.7943" r="314.7163" gradientTransform="matrix(1 0 0 -1 0 1002)" gradientUnits="userSpaceOnUse">
		<stop  offset="0" style="stop-color:#3298DA"/>
		<stop  offset="0.8" style="stop-color:#2576F4"/>
	</radialGradient>
	<path class="st1" d="M826,746.5c-2.2,14.9-7.6,28.6-14.8,41.8c-7.8,14.4-16.7,28-27.5,40.4c-11.4,13.1-24.3,24.4-39.7,32.5
		c-23,12.2-46.9,15.3-72.3,8c-16.1-4.6-29.1-13.3-40.1-25.7c-0.1-0.2-0.3-0.4-0.4-0.7l0,0c4.8-9.3,9.5-18.6,14.3-28
		c12.8-24.8,25.5-49.7,38.3-74.5c2.9-5.6,7.3-9.7,13.6-10.5c3.8-0.5,7.9,0,11.8,0.5c19.3,2.4,38.5,5,57.8,7.5
		c16.8,2.2,33.6,4.5,50.4,6.8C820.5,745,823.2,745.8,826,746.5z M347.6,802c-10.7-20.7-21.4-41.4-32.1-62.1
		c-4.4-8.4-11.8-11.6-21.5-10.2c-13,1.9-26,3.5-39.1,5.3c-14.5,2-28.9,4-43.4,5.9c-11.3,1.5-22.5,2.9-33.8,4.3
		c-1.7,0.2-3.5,0.3-3.6,2.6c1.8,6.7,3.1,13.6,5.4,20.2c4.2,12.7,10.9,24.2,18,35.5c12.2,19.3,26.6,36.6,45.4,49.8
		c26.4,18.5,54.9,25.1,86.4,15.5c15.8-4.8,28.8-13.6,39.2-26.2C361.6,829.1,354.6,815.5,347.6,802z M178.8,714.6
		c18.8-2.9,37.5-5.8,56.3-8.6c18-2.7,36-5.4,54-8.1c4.4-0.7,8.9-1.3,13.4-1.8c5-0.6,8.2-4,11.6-7.1c17.9-16.4,35.6-32.8,53.4-49.3
		c16.3-15,32.7-30,49-45c6.2-5.7,12.4-11.5,18.6-17.2c0.6-0.6,0.9-1.5,1.4-2.2c-14.7,1.2-29.5,1.8-44.1,3.6
		c-20.8,2.5-41.3,7-61.5,12.8c-22,6.3-43.2,14.4-63.4,25c-28,14.6-53.4,32.8-73,58c-8.6,11-15.4,23-18.9,36.7
		C175,714.9,175.2,715.1,178.8,714.6z M565.9,578.3c13.1,12.1,26.2,24.1,39.3,36.1c7.5,7,15,14,22.5,21
		c18.1,16.6,36.2,33.2,54.3,49.8c2.8,2.6,5.5,5.4,8.5,7.7c2.1,1.5,4.7,2.9,7.2,3.3c14.5,2.3,29.1,4.3,43.7,6.4
		c12.3,1.8,24.7,3.7,37,5.5c12,1.8,24,3.6,36,5.3c3.5,0.5,7.1,0.9,10.7,1.3c-0.5-2.3-1-4.6-1.7-6.8c-6.3-19.9-18.5-35.9-33.2-50.2
		c-24.8-24.4-54.5-41.2-86.5-54.1c-26.7-10.7-54.4-18.1-82.9-22.6c-18.7-3-37.5-5.5-56.5-5.1C564.9,576.7,565.2,577.7,565.9,578.3z
		 M614.5,803.5c11.2-20.4,22.3-40.9,33.5-61.4c3.6-6.5,7.2-13,10.7-19.5c4.8-9,4-14.1-3.4-21.4c-9.1-8.9-18.2-17.8-27.3-26.7
		c-9.6-9.3-19.2-18.4-28.8-27.7c-21.8-21.2-43.6-42.6-65.4-63.8c-0.9-0.9-2.2-1.6-3.3-2.3c0.8,17.6,2.4,35.1,2.2,52.7
		c-0.2,19.5,4.1,37.8,10.4,55.8c7.1,20.3,15.4,40.2,25.1,59.4c11.5,22.9,24.2,45,39.4,65.7C610,810.7,612.4,807.2,614.5,803.5z
		 M468.3,581.5c-0.7,0.5-1.5,0.9-2.1,1.5c-10.7,10.4-21.3,20.8-31.9,31.1c-16.8,16.4-33.6,32.7-50.4,49.1
		c-13.2,12.8-26.4,25.5-39.5,38.3c-7.4,7.2-7.9,12.9-2.8,21.7c6.3,11,12.2,22.3,18.4,33.5c10.6,19.3,21.2,38.5,31.8,57.7
		c0.9-1,1.9-1.9,2.6-3c10.9-15.7,21-32,30-48.9c14.1-26.6,26.2-54.1,35.4-82.8c3.7-11.4,6.6-23,7.2-35c1-20.3,1.5-40.6,2.1-60.8
		C468.8,583.1,468.5,582.3,468.3,581.5z"/>
	
		<radialGradient id="SVGID_2_" cx="502.5591" cy="656.6808" r="404.9774" gradientTransform="matrix(1 0 0 -1 0 1002)" gradientUnits="userSpaceOnUse">
		<stop  offset="0" style="stop-color:#36BDBA"/>
		<stop  offset="0.6157" style="stop-color:#39D8AA"/>
	</radialGradient>
	<path class="st2" d="M292.1,234.5c17.9,16.6,36.2,32.8,53.5,50c19,18.9,37.4,38.4,55.2,58.5c17.4,19.7,33.6,40.5,50.5,60.8
		c3.2,3.8,2.6,8.5,3.3,12.9c3.8,24,7.3,48.1,10.8,72.2c2,13.7,3.5,27.5,5.4,41.2c0.4,3-1.4,2.5-3,2.5c-20.1,0-40.2-0.1-60.3-0.1
		c-11.7-18.2-23.4-36.3-35.1-54.5c-16.3-25.3-32.5-50.6-48.8-75.9c-16.9-26.2-33.8-52.4-50.5-78.7c-1.8-2.9-3.1-6.7-3-10.1
		c0-4.6,1.3-9.3,2.5-13.8c3.3-11.9,6.9-23.8,10.5-35.6C286,254.1,289.1,244.3,292.1,234.5z M621,488c7.9-12.3,15.9-24.5,23.8-36.9
		c8.4-13,16.7-26.2,25.1-39.2c8.3-13,16.8-25.9,25.1-38.8c9.8-15.2,19.2-30.8,29.5-45.7c5.7-8.2,7.2-16.2,3.8-25.4
		c-1.1-3.2-2-6.4-3-9.7c-5.8-19.3-11.6-38.6-17.3-57.8c-0.7,0.4-1.4,0.7-2,1.2c-7.4,6.6-14.8,13.2-22.1,19.9
		c-26.5,24.6-52.1,50.1-76,77.3c-20.3,23.1-39.5,47.1-59.2,70.8c-0.9,1.1-1.7,2.5-2,3.8c-1.9,11.5-3.7,22.9-5.3,34.4
		c-4.1,29-8,58-12.2,87c-0.4,2.9,0.4,3.7,3.2,3.7c19.9-0.1,39.7-0.1,59.6-0.2C601.8,517.6,611.4,502.8,621,488z M837.2,389.5
		c-8.2,0.5-16.4,1-24.6,1.5c-16.3,1.1-32.5,2.2-48.8,3.3c-8,0.5-16,0.9-23.9,1.5c-5.2,0.3-10.3,0.7-15.5,1.2
		c-10.6,1-18.6,6.7-24.5,15.1c-10.4,14.8-20.8,29.6-30.3,45.1c-14.3,23.3-27.7,47.2-41.4,70.8c-0.3,0.5-0.4,1-0.6,1.5
		c0.3,0,0.6,0,1,0c0.3-0.1,0.5-0.2,0.8-0.2c6.5-0.8,13-1.3,19.4-2.4c27-4.5,53.9-9.4,80.9-13.9c23.6-3.9,46.3-10.6,67.7-21.4
		c12.7-6.4,25.3-13.1,35.4-23.3c11.7-11.7,20.3-25.7,28.1-40.2c7-13.1,12.9-26.8,17-41.1C864.3,387.7,850.7,388.6,837.2,389.5z
		 M371.1,526.6c-16.9-28.5-33.4-57.2-50.7-85.4c-7.3-11.9-16.1-23.1-24.8-34.1c-5.7-7.2-14.2-10.1-23.3-10.7
		c-15.7-1-31.4-1.9-47.2-2.9c-17.2-1.1-34.4-2.3-51.5-3.4c-13.6-0.9-27.2-1.8-40.8-2.7c-2.7-0.2-5.4-0.5-8.1-0.5
		c-0.9,0-1.7,0.8-2.6,1.3c0.9,2.8,1.8,5.6,2.8,8.3c7.1,19.2,16.1,37.5,27.9,54.3c5.7,8.2,11.9,16.2,19.9,22.4
		c12.2,9.5,25.6,16.8,39.7,23c14.9,6.6,30.4,11.5,46.3,14.6c19.3,3.7,38.5,7.2,57.9,10.4c17.6,2.9,35.2,5.3,52.8,8
		C371.2,529.2,372.6,529.1,371.1,526.6z M88.9,230.8c3.2,22.2,6.7,44.3,10.7,66.3c2.7,14.9,6.4,29.7,9.9,44.5
		c1.5,6.6,3.5,13,5.3,19.5c15.8,1,31.7,1.9,47.5,2.9c6.5,0.4,13,0.9,19.5,1.3c16.3,1.1,32.5,2.2,48.8,3.3c5.9,0.4,11.9,1.3,17.8,1.1
		c5.3-0.2,10.6-1.3,15.8-2.5c2.6-0.6,4.1-3.1,3.5-5.8c-0.6-2.7-1.2-5.7-2.9-7.7c-5.4-6.6-11.1-13-16.9-19.3
		c-9.6-10.5-19.3-20.8-28.9-31.2c-14.3-15.6-28.6-31.2-43-46.8c-10-10.9-20.1-21.6-30.1-32.4c-18.1-19.6-36.2-39.3-54.3-58.9
		c-1.9-2-3.8-4-5.8-6.2c-0.3,2-0.6,3.6-0.9,5.2C84.6,186.4,85.7,208.7,88.9,230.8z M889.8,343.2c5.6-26.2,11.8-52.3,16.5-78.6
		c3.5-20,5.7-40.4,7.4-60.6c1.2-15,0.6-30.1,0.9-45.2c-5,5.3-10,10.6-15,16c-17.5,18.9-35.1,37.8-52.6,56.8
		c-19.8,21.4-39.6,42.8-59.4,64.2c-5.7,6.2-11.4,12.5-17.1,18.7c-8.8,9.5-17.7,18.9-26.3,28.6c-3.9,4.3-7.6,8.9-10.8,13.8
		c-3.3,5.1-1.1,10.3,4.8,11.7c4,0.9,8.2,1.5,12.3,1.3c9.1-0.3,18.2-1.1,27.3-1.8c17-1.1,33.9-2.3,50.8-3.4c14.9-1,29.9-1.9,44.8-2.9
		c4-0.3,8-0.8,12.1-1.2C886.9,354.8,888.5,349,889.8,343.2z M271.1,216.5c-21.4-17.4-43.4-34-66.8-48.7
		c-21.3-13.4-43.3-25.4-67.4-33.1c-9.3-2.9-18.6-5.4-28.4-5.3c-5.1,0.1-9.9,0.9-13.6,4.8c4.9,5.4,9.8,10.9,14.8,16.1
		c11.8,12.3,23.6,24.6,35.4,36.8c10.1,10.4,20.3,20.8,30.6,31.1c12.9,13.1,25.9,26.1,38.9,39.1c5.8,5.8,11.7,11.5,17.8,17.1
		c8.8,8.1,18.7,6.3,22.5-4.6c6.1-17.3,11.6-34.8,17.3-52.2C271.7,217.2,271.4,216.8,271.1,216.5z M896.7,130.2
		c-6-0.4-12.2-0.6-18.1,0.6c-23.5,4.6-44.7,14.8-65.4,26.4c-20.1,11.3-39.2,24.3-57.5,38.2c-9.4,7.1-18.5,14.7-27.7,22.1
		c1.7,5.5,3.3,11,5.1,16.4c4.2,12.5,8.3,25,12.9,37.3c2.7,7.3,8.7,9.7,15.8,6.7c2.9-1.2,5.7-3.2,8-5.5
		c11.6-11.4,23.2-22.9,34.6-34.5c22.5-22.9,45-45.8,67.5-68.8c10.5-10.7,20.7-21.6,31-32.5c0.8-0.8,1.2-2.1,1.7-3.1
		C902,132.4,899.4,130.4,896.7,130.2z"/>
	<path class="st0" d="M877.9,386.9c-13.6,0.9-27.2,1.7-40.7,2.6c-8.2,0.5-16.4,1-24.6,1.5c-16.3,1.1-32.5,2.2-48.8,3.3
		c-8,0.5-16,0.9-23.9,1.5c-5.2,0.3-10.3,0.7-15.5,1.2c-10.6,1-18.6,6.7-24.5,15.1c-10.4,14.8-20.8,29.6-30.3,45.1
		c-14.3,23.3-27.7,47.2-41.4,70.8c-0.3,0.5-0.4,1-0.6,1.5c-11.8,1-23.7,2-35.5,3c9.6-14.8,19.2-29.7,28.8-44.5
		c7.9-12.3,15.9-24.5,23.8-36.9c8.4-13,16.7-26.2,25.1-39.2c8.3-13,16.8-25.9,25.1-38.8c9.8-15.2,19.2-30.8,29.5-45.7
		c5.7-8.2,7.2-16.2,3.8-25.4c-1.1-3.2-2-6.4-3-9.7c-5.8-19.3-11.6-38.6-17.3-57.8c4.1-3.6,8.1-7.2,12.2-10.8
		c2.5-2.2,5.2-4.2,7.7-6.2c1.7,5.5,3.3,11,5.1,16.4c4.2,12.5,8.3,25,12.9,37.3c2.7,7.3,8.7,9.7,15.8,6.7c2.9-1.2,5.7-3.2,8-5.5
		c11.6-11.4,23.2-22.9,34.6-34.5c22.5-22.9,45-45.8,67.5-68.8c10.5-10.7,20.7-21.6,31-32.5c0.8-0.8,1.2-2.1,1.7-3.1
		c6,5.2,8.5,12.1,9.3,19.8c0.2,1.8,0.4,3.6,0.6,5.3c-5,5.3-10,10.6-15,16c-17.5,18.9-35.1,37.8-52.6,56.8
		c-19.8,21.4-39.6,42.8-59.4,64.2c-5.7,6.2-11.4,12.5-17.1,18.7c-8.8,9.5-17.7,18.9-26.3,28.6c-3.9,4.3-7.6,8.9-10.8,13.8
		c-3.3,5.1-1.1,10.3,4.8,11.7c4,0.9,8.2,1.5,12.3,1.3c9.1-0.3,18.2-1.1,27.3-1.8c17-1.1,33.9-2.3,50.8-3.4c14.9-1,29.9-1.9,44.8-2.9
		c4-0.3,8-0.8,12.1-1.2C882.9,369.3,880.4,378.1,877.9,386.9z M372.9,529.8c2.2,0.2,4.5,0.1,6.7,0.2c9.2,0.8,18.5,1.6,27.7,2.4
		c-11.7-18.2-23.4-36.3-35.1-54.5c-16.3-25.3-32.5-50.6-48.8-75.9c-16.9-26.2-33.8-52.4-50.5-78.7c-1.8-2.9-3.1-6.7-3-10.1
		c0-4.6,1.3-9.3,2.5-13.8c3.3-11.9,6.9-23.8,10.5-35.6c3-9.8,6.1-19.6,9.1-29.3c-0.9-0.8-1.8-1.7-2.7-2.5
		c-5.8-4.9-11.6-9.7-17.5-14.5c-5.7,17.4-11.2,34.9-17.3,52.2c-3.9,10.9-13.7,12.8-22.5,4.6c-6.1-5.6-11.9-11.3-17.8-17.1
		c-13-13-25.9-26-38.9-39.1c-10.2-10.3-20.4-20.7-30.6-31.1c-11.9-12.2-23.7-24.4-35.4-36.8c-5-5.3-9.9-10.8-14.8-16.1
		c-1.4,1.5-3.3,2.8-4.2,4.5c-4.4,7.9-5.5,16.5-5.5,25.4c0.3-1.6,0.5-3.2,0.9-5.2c2,2.2,3.9,4.2,5.8,6.2
		c18.1,19.6,36.2,39.3,54.3,58.9c10,10.8,20.1,21.6,30.1,32.4c14.4,15.6,28.6,31.2,43,46.8c9.6,10.4,19.4,20.8,28.9,31.2
		c5.8,6.3,11.5,12.6,16.9,19.3c1.6,2,2.3,5,2.9,7.7c0.6,2.7-0.9,5.2-3.5,5.8c-5.2,1.2-10.5,2.3-15.8,2.5c-5.9,0.2-11.9-0.7-17.8-1.1
		c-16.3-1.1-32.5-2.2-48.8-3.3c-6.5-0.4-13-0.9-19.5-1.3c-15.8-1-31.7-2-47.5-2.9c2.4,9,4.9,18.1,7.3,27.1c0.9-0.4,1.7-1.3,2.6-1.3
		c2.7,0,5.4,0.4,8.1,0.5c13.6,0.9,27.2,1.8,40.8,2.7c17.2,1.1,34.3,2.3,51.5,3.4c15.7,1,31.5,1.9,47.2,2.9
		c9.1,0.6,17.6,3.5,23.3,10.7c8.7,11,17.5,22.1,24.8,34.1c17.3,28.2,33.8,56.9,50.7,85.4c1.5,2.5,0.1,2.5-1.7,2.5
		C370.6,529.4,371.8,529.7,372.9,529.8z M469.6,578.7c0.3-2.5-0.9-3.5-3.3-3.5c-10,0-19.9,0-29.9,0c-0.5,0.7-0.8,1.6-1.4,2.2
		c-6.2,5.8-12.4,11.5-18.6,17.2c-16.3,15-32.7,30-49,45c-17.8,16.4-35.5,32.9-53.4,49.3c-3.4,3.1-6.6,6.5-11.6,7.1
		c-4.5,0.5-8.9,1.2-13.4,1.8c-18,2.7-36,5.3-54,8.1c-18.8,2.8-37.5,5.7-56.3,8.6c-3.6,0.5-3.8,0.3-3.3-3.3c-0.4,0.5-1,0.9-1.1,1.4
		c-0.6,3.7-1.4,7.5-1.4,11.2c0.1,8,0.6,15.9,1,23.9c0.1-2.4,1.9-2.4,3.6-2.6c11.3-1.4,22.5-2.8,33.8-4.3c14.5-1.9,28.9-4,43.4-5.9
		c13-1.8,26.1-3.4,39.1-5.3c9.7-1.5,17.2,1.8,21.5,10.2c10.8,20.7,21.4,41.4,32.1,62.1c7,13.5,13.9,27,20.9,40.6
		c3-3.2,6.1-6.3,8.9-9.7c4.9-6,9.5-12.3,14.2-18.4c-10.6-19.2-21.2-38.5-31.8-57.7c-6.1-11.2-12-22.4-18.4-33.5
		c-5-8.9-4.5-14.6,2.8-21.7c13.2-12.8,26.4-25.5,39.5-38.3c16.8-16.3,33.6-32.7,50.4-49.1c10.6-10.4,21.3-20.8,31.9-31.1
		c0.6-0.6,1.4-1,2.1-1.5c0.2,0.8,0.5,1.6,0.7,2.4C469.2,582.2,469.4,580.4,469.6,578.7z M622.8,833.5c2.7,3.3,5.8,6.2,8.7,9.2
		c4.8-9.3,9.5-18.6,14.3-28c12.8-24.8,25.5-49.7,38.3-74.5c2.9-5.6,7.3-9.7,13.6-10.5c3.8-0.5,7.9,0,11.8,0.5
		c19.3,2.4,38.5,5,57.8,7.5c16.8,2.2,33.6,4.5,50.4,6.8c2.8,0.4,5.6,1.2,8.4,1.9c0.3-2.3,0.6-4.6,0.9-6.9c0.9-8.4-0.2-16.7-1.8-24.9
		c-3.6-0.4-7.1-0.8-10.7-1.3c-12-1.7-24-3.5-36-5.3c-12.3-1.8-24.7-3.7-37-5.5c-14.6-2.1-29.1-4.1-43.7-6.4
		c-2.5-0.4-5.1-1.8-7.2-3.3c-3.1-2.3-5.7-5.1-8.5-7.7c-18.1-16.6-36.2-33.2-54.3-49.8c-7.5-6.9-15-14-22.5-21
		c-13.1-12.1-26.2-24.1-39.3-36.1c-0.7-0.6-1-1.6-1.5-2.5l0,0c-0.2-0.2-0.5-0.4-0.7-0.6c-9.5,0-19-0.1-28.5,0
		c-4.7,0-4.9,0.5-4.7,5.4c1.1,0.8,2.3,1.4,3.3,2.3c21.8,21.3,43.5,42.6,65.4,63.8c9.5,9.3,19.2,18.4,28.8,27.7
		c9.2,8.8,18.3,17.7,27.3,26.7c7.4,7.3,8.2,12.3,3.4,21.4c-3.5,6.6-7.2,13-10.7,19.5c-11.2,20.5-22.3,40.9-33.5,61.4
		c-2,3.7-4.4,7.3-6.7,10.9C612.8,820.7,617.6,827.2,622.8,833.5z"/>
</g>
<g id="Logo_Left">
	<path class="st3" d="M469,575.2c0,0-88.2-4.4-169.3,26c-52.6,19.8-107,56-125.3,111.5c-7.9,24,4.8,81.1,41.2,117.5
		c51.4,51.4,93.6,50.7,123,36c55.2-27.6,107.2-128.7,124.3-197.8C472.5,629.9,468.5,592.3,469,575.2z"/>
	<g>
		
			<linearGradient id="SVGID_3_" gradientUnits="userSpaceOnUse" x1="304.6737" y1="-1662.3656" x2="420.8581" y2="-1595.2866" gradientTransform="matrix(0.6993 -0.7148 -0.7148 -0.6993 -1077.5641 -199.3714)">
			<stop  offset="0" style="stop-color:#36BDBA"/>
			<stop  offset="0.93" style="stop-color:#39D8AA"/>
		</linearGradient>
		<path class="st4" d="M385.8,709.5l65.1-0.7l-31.7,32.4l-107.4,1.2l32.9-33.6c7.1-7.3,10.9-16.8,10.8-27
			c-0.1-10.1-4.2-19.6-11.4-26.7c-7.3-7.1-16.8-10.9-27-10.8s-19.6,4.2-26.7,11.4l-10.7,10.9l-53.7,0.6l36.1-36.8
			c29.3-30,77.4-30.5,107.4-1.2C391.5,650.6,399.3,677.2,385.8,709.5z"/>
		
			<linearGradient id="SVGID_4_" gradientUnits="userSpaceOnUse" x1="201.7873" y1="-1689.821" x2="297.1163" y2="-1594.4922" gradientTransform="matrix(0.6993 -0.7148 -0.7148 -0.6993 -1077.5641 -199.3714)">
			<stop  offset="0.2" style="stop-color:#2576F4"/>
			<stop  offset="1" style="stop-color:#3298DA"/>
		</linearGradient>
		<path class="st5" d="M223.2,735.8l-65.1,0.7l31.7-32.4l107.4-1.2l-32.9,33.6c-7.1,7.3-10.9,16.8-10.8,27
			c0.1,10.1,4.2,19.6,11.4,26.7c7.3,7.1,16.8,10.9,27,10.8s19.6-4.2,26.7-11.4l10.7-10.9l53.7-0.6l-36,36.8
			c-29.3,30-77.4,30.5-107.4,1.2C217.5,794.7,209.8,768,223.2,735.8z"/>
	</g>
</g>
</svg>
