<?xml version="1.0" encoding="utf-8"?>
<!-- Generator: Adobe Illustrator 23.0.6, SVG Export Plug-In . SVG Version: 6.00 Build 0)  -->
<svg version="1.1" id="Layer_1" xmlns="http://www.w3.org/2000/svg" xmlns:xlink="http://www.w3.org/1999/xlink" x="0px" y="0px"
	 viewBox="0 0 1000 1000" style="enable-background:new 0 0 1000 1000;" xml:space="preserve">
<style type="text/css">
	.st0{opacity:0.9;}
	.st1{fill:#FFFFFF;}
	.st2{fill:#091440;}
	.st3{fill:url(#SVGID_1_);}
	.st4{fill:url(#SVGID_2_);}
	.st5{fill:#091440;stroke:#091440;stroke-width:40;stroke-miterlimit:10;}
	.st6{fill:url(#SVGID_3_);}
	.st7{fill:url(#SVGID_4_);}
</style>
<g id="Outline">
	<g class="st0">
		<path class="st1" d="M698.8,909.4c-3.8,0-7.7-0.2-11.5-0.4c-30.3-2.3-55.9-15.2-76.1-38.3c-19.2-21.9-36.3-46.9-55.7-81.2
			c-10-17.7-18.8-35.2-26.8-53.2c-3.9,14-9,28.4-17.8,41.7c-0.5,0.8-1,1.5-1.4,2.1c-2.1,3.3-4.5,7.1-9.5,7.1l0,0
			c-5,0-7.4-3.8-10.2-8.1l-0.8-1.3c-8.6-13.3-13.8-27.6-17.7-41.7c-18,40.2-39.1,77.2-62.9,110.1c-10,13.8-22.5,29.7-38.9,42.3
			c-12.8,9.8-28.3,16.2-46,19c-7.6,1.2-15.4,1.8-23,1.8c-23.7,0-47.6-5.8-71.3-17.4c-31.1-15.2-57.1-38.5-77.4-69.3
			c-14.2-21.6-23.2-42.6-27.5-64c-6.6-33.1-0.9-64.5,17.1-93.2c13.4-21.4,32.3-40,57.9-56.8c31.3-20.5,67.7-35.6,111.3-46.1
			c1.6-0.4,3.2-0.8,4.8-1.1c-5.8-0.6-11.6-1.2-17.4-2c-22.2-2.9-45.9-6.7-72.4-11.6c-23-4.3-45.8-11-67.7-19.9
			c-20.2-8.2-35.3-23.3-47.3-47.4c-14.3-28.5-23.6-58.5-30.9-84.2c-7.6-26.8-14-55.1-19.5-86.6c-3.6-20.7-6.4-41.5-9.2-62.8
			c-3.8-29.4-5.4-58.5-4.7-86.5c0.5-18.9,5.1-34.1,14.3-46.6C71,99.8,85.6,92.1,104.1,90.9c1.9-0.1,3.9-0.2,5.8-0.2
			c20.1,0,38.3,6.4,55,13.4c26.9,11.2,53.4,26.3,86,49.1c40.1,28,79.6,61.2,120.6,101.6c27.6,27.2,54.3,56.1,79.4,86.3
			c-0.7-4-1.4-8.1-2-12.3c-1.3-10.1,0.7-18.5,6.2-24.9c-8.9-16.4-18-32.9-26.9-48.9c0,0-10.9-19.8-14.2-25.9
			c-7.2-13.1-14.4-26.1-21.5-39.2c-3.6-6.5-4-13.7-1.3-19.7c2.6-5.7,7.9-9.8,14.5-11.3c1.4-0.3,2.8-0.5,4.2-0.5
			c7.5,0,14.2,4.3,18.4,11.9c3.4,6.2,6.8,12.3,10.2,18.5c2.5,4.5,5,9,7.4,13.5c4,7.2,8,14.5,12,21.7c12,21.8,24.5,44.4,36.5,66.8
			c0.3,0.5,0.5,0.8,0.6,1c0.2,0,0.4,0,0.6-0.1c1.3-0.2,2.6-0.3,4.1-0.3c1.4,0,2.7,0.1,4,0.1c0.4,0,0.8,0,1.2,0.1
			c3.6-6.6,7.3-13.4,10.9-19.9c3.2-5.9,6.5-11.9,9.7-17.8l2.5-4.6c14.2-25.8,28.9-52.6,43.5-78.7c2.2-4,5.7-7.6,9.6-9.9
			c2.7-1.6,5.8-2.4,9.1-2.4c5.5,0,11,2.4,14.7,6.4c6.3,6.7,7.3,16,2.8,24.4c-2.9,5.4-6,10.9-8.9,16.2c-1.5,2.6-2.9,5.3-4.3,7.9
			l-10.5,19.2c-12.9,23.4-26.2,47.6-39.3,71.4c4.2,4.6,6.3,10.7,6.5,18.6c0.1,6.1-0.6,12.1-1.6,17.8c0.4-0.5,0.8-0.9,1.2-1.4
			c47.4-56.7,98.3-107.3,151.3-150.4c37.3-30.3,70.3-52.8,103.9-70.7c16.9-9,39.6-20.1,64.7-25.2c7.3-1.5,13.8-2.2,20-2.2
			c8.2,0,15.6,1.3,22.8,3.8c17.6,6.4,29.8,19.8,36.3,40.1c3.4,10.6,4,21.3,4.2,29.5c0.4,23.3-0.7,45.9-3.2,67.3l-0.6,5.2
			c-2.8,23.2-5.7,47.3-9.8,70.8C929.2,370,916.4,417.2,898.7,460c-4.9,11.8-10.9,22.9-17.7,35.1c-7.8,13.9-19.8,24.4-36.7,31.9
			c-19.4,8.6-41,15.2-66.3,20.3c-21.3,4.2-42.3,7.9-62.2,10.8c-10.3,1.5-20.8,2.6-31.2,3.7c4.3,1,8.7,2,13,3.1
			c39.7,10.2,73.4,24.5,103,44c29.8,19.5,50.7,41.5,63.9,67.2c11.4,22,15.7,45.8,13,70.7c-2.9,26.9-13.5,53.2-32.2,80.3
			c-23.3,33.7-53.6,57.9-90.2,71.8C736.6,905.8,717.7,909.4,698.8,909.4z M181.5,746.7c0.5,1.9,0.9,3.8,1.4,5.7
			c1.1,4.7,2.2,9,3.6,13.3c4.1,12.3,10.7,23.5,17.2,33.8c13.4,21.2,27.2,36.3,43.4,47.6c17.8,12.5,35.4,18.5,53.8,18.5
			c8.5,0,17.3-1.4,26.1-4c14.3-4.3,25.9-12.1,35.6-23.8l0.1-0.2l0.1-0.2c1-1,1.9-2,2.9-3.1c2-2.1,4-4.2,5.7-6.3
			c3.4-4.2,6.7-8.5,9.9-12.8c1.4-1.8,2.8-3.7,4.2-5.5l0.2-0.2l0.2-0.2c0.3-0.4,0.7-0.8,1-1.1c0.4-0.5,0.9-0.9,1.1-1.2
			c11-15.8,20.9-31.9,29.5-48.1c14.8-27.7,26.2-54.4,34.9-81.6c4.3-13.2,6.4-23.4,6.8-33.1c0.7-14.2,1.1-28.7,1.6-42.7
			c0.2-6,0.4-12,0.6-18l0-0.3l0.1-0.7c-5.7,0-11.4,0-17.1,0l-7.7,0c-4.5,0.4-9,0.7-13.4,1c-9.9,0.7-20.2,1.4-30.1,2.6
			c-19.2,2.3-38.9,6.5-60.3,12.6c-22.8,6.5-43.1,14.5-62,24.4c-31,16.2-53.4,34-70.5,56c-9,11.5-14.7,22.6-17.6,33.9l-0.4,1.5
			l-0.8,1.1c-0.1,0.4-0.1,0.7-0.2,1.1c-0.4,2.5-0.8,4.9-0.8,7c0.1,5.5,0.4,11.1,0.6,16.6C181.3,742.6,181.4,744.6,181.5,746.7z
			 M637.9,839c10.2,11.4,22,18.9,36.1,23c8.3,2.4,16.7,3.6,24.8,3.6c14.2,0,28-3.6,41.9-11c13.3-7.1,25.6-17.2,37.5-30.8
			c9.6-11.1,18.3-23.8,26.5-39c7.5-13.9,12.1-26.8,13.9-39.3c0.1-0.7,0.2-1.5,0.3-2.2c0.2-1.5,0.4-3,0.6-4.5
			c0.9-7.9-0.4-15.8-1.7-22.5c-0.2-0.7-0.3-1.4-0.5-2.2c-0.3-1.4-0.6-2.8-1-4c-5.2-16.3-15.1-31.3-31.3-47.2
			c-21.7-21.3-49.2-38.5-84-52.5c-25.3-10.2-52.6-17.6-81.3-22.1c-12.7-2-26.2-3.9-39.7-4.7l32,41.1l-51-42c-1.9,0-3.8,0-5.6,0
			c-3.9,0-7.9,0-11.8,0c-1.8,0-3.6,0-5.4,0c0.2,4.5,0.5,9.1,0.8,13.6c0.7,12.1,1.5,24.7,1.3,37.1c-0.2,16.3,3,33.2,10,53.3
			c7.1,20.4,15.5,40.1,24.8,58.5c13.1,26,25.4,46.5,38.7,64.5c1.5,1.9,2.9,3.7,4.3,5.6c3.4,4.4,6.9,9,10.5,13.4
			c1.6,2,3.5,3.9,5.5,5.9c1,1,1.9,1.9,2.8,2.9l0.4,0.4l0.5,0.7L637.9,839z M554.2,409c-1.8,10.8-3.6,22.3-5.3,34
			c-2,13.8-3.9,27.6-5.8,41.4c-1.8,13.4-3.8,27.1-5.7,40.8c13.5-0.1,27.1-0.1,40.3-0.1l14.1,0l35.7-3l0.2,0l0.2,0l0.6-0.1
			c2.1-0.3,4.2-0.5,6.2-0.7c4.5-0.5,8.7-1,12.9-1.7c12.6-2.1,25.4-4.3,37.7-6.5c14.1-2.5,28.8-5,43.2-7.4
			c24.6-4.1,46.1-10.9,65.5-20.7c12.3-6.2,24.1-12.5,33.5-21.9c11.8-11.9,20.2-26.1,26.8-38.5c7.4-13.9,12.8-26.8,16.4-39.6
			l7.5-26.3c0.5-1.8,0.9-3.6,1.4-5.4c1-4,2-7.7,2.9-11.5c1.5-7,3-14,4.6-21c4.1-18.8,8.4-38.2,11.8-57.3c3-17.1,5.3-36.2,7.3-59.9
			c0.8-10.1,0.8-20.5,0.8-30.6c0-4.5,0-9.1,0-13.6l-0.1-1.2c-0.1-1.2-0.3-2.5-0.4-3.7c-0.6-6.3-2.5-10.9-6-14.2
			c-0.7-0.3-1.3-0.7-1.8-1c-0.8-0.4-1.9-1.1-2.4-1.2c-2.2-0.1-4.8-0.3-7.3-0.3c-3.4,0-6.3,0.2-8.8,0.7
			c-23.8,4.6-45.3,15.5-63.2,25.6c-18.6,10.5-37.2,22.8-56.7,37.7c-6.4,4.9-12.8,10-18.9,15c-2.9,2.3-5.7,4.6-8.6,6.9
			c-0.8,0.6-1.6,1.3-2.4,1.9c-1.8,1.4-3.5,2.7-5.1,4.1c-2.9,2.4-5.7,5-8.5,7.5c-1.2,1.1-2.4,2.1-3.6,3.2l-0.5,0.5l-0.6,0.4
			c-0.3,0.2-0.7,0.4-1,0.6c0,0-0.1,0-0.1,0.1c-1.7,1.5-3.4,3-5.1,4.5c-5.5,4.9-11.1,9.9-16.6,15c-29.5,27.5-54.2,52.6-75.5,76.7
			c-14.4,16.4-28.5,33.5-42.2,50.2c-5.5,6.7-11.2,13.6-16.9,20.4C554.4,408.7,554.3,408.9,554.2,409z M419.7,525
			c14.2,0,28.5,0.1,42.7,0.1c-0.6-4.5-1.1-8.9-1.7-13.3c-0.9-7.2-1.8-14.6-2.9-21.9c-3.7-25.8-7.2-49.3-10.7-72.1
			c-0.2-1.4-0.3-2.6-0.4-3.8c-0.2-2.8-0.4-4.4-1.2-5.4c-5.6-6.8-11.2-13.7-16.7-20.4c-10.9-13.4-22.1-27.2-33.6-40.2
			c-16.8-19-35.3-38.6-54.8-58.1c-11.9-11.9-24.5-23.4-36.8-34.6c-5.4-5-11-10.1-16.5-15.2c-0.2-0.2-0.5-0.5-0.9-0.8
			c-0.5-0.5-1-1-1.6-1.4c-4.4-3.6-8.7-7.3-13.1-10.9l-5-4.1l-0.5-0.6c-0.1-0.1-0.2-0.2-0.3-0.4c-24.3-19.8-45.2-34.9-65.6-47.8
			c-17.1-10.7-40-24.1-65.7-32.3c-8-2.6-16.7-4.9-25.4-4.9h-0.7c-4.3,0.1-6.7,0.8-8.4,2.5c-0.6,0.6-1.2,1.2-1.7,1.7
			c-0.5,0.4-1.2,1.1-1.3,1.3c-3.1,5.5-4.5,12.2-4.5,21.7v0.1c-0.5,22.7,0.8,44.7,3.8,65.5c3.3,22.7,6.8,44.9,10.7,66
			c2.1,11.7,5,23.6,7.7,35.1c0.7,3,1.4,6,2.1,9c1,4.3,2.2,8.6,3.5,13.1c0.6,2,1.2,4.1,1.7,6.1l7.3,27c0.3,0.8,0.6,1.7,0.8,2.5
			c0.6,1.9,1.2,3.7,1.8,5.4c7.3,19.8,16.1,37,27,52.6c5.1,7.4,10.9,15,18.3,20.8c10.4,8.1,22.5,15.1,38.1,22
			c14.6,6.4,29.6,11.2,44.7,14c21.6,4.1,40.4,7.5,57.7,10.4c12.1,2,24.5,3.8,36.5,5.6c5.4,0.8,10.8,1.6,16.2,2.4l0.2,0
			c0.4,0.1,0.9,0.2,1.3,0.3c0.5,0.1,1.1,0.2,1.4,0.3c0.9,0.1,1.8,0.1,2.8,0.1c1.3,0,2.6,0,4.1,0.2c6.8,0.6,13.5,1.2,20.3,1.7
			l7.1,0.6L419.7,525z"/>
		<path class="st1" d="M890.4,98.1c6.8,0,13.5,1,20.2,3.4c16.8,6.1,26.4,18.8,31.8,35.3c2.9,8.9,3.7,18.1,3.8,27.3
			c0.4,22.1-0.5,44.2-3.2,66.2c-3.1,25.3-6,50.6-10.4,75.6c-9,51.6-20.8,102.6-40.9,151.2c-4.9,11.8-11.1,23.1-17.4,34.3
			c-7.5,13.5-19.2,22.5-33.2,28.7c-20.8,9.2-42.5,15.3-64.7,19.7c-20.5,4.1-41.1,7.7-61.8,10.7c-17.3,2.5-34.7,3.9-52,5.7
			c-9.1,0.9-18.2,1.4-27.3,2.2c-0.6,0-1.2,0.2-1.7,0.2c0,0,0,0-0.1,0c-0.2,0-0.5-0.1-0.7-0.2c0.2,0.1,0.4,0.1,0.7,0.2
			c20.8,4.4,41.7,8.2,62.2,13.5c35.7,9.1,69.8,22.6,100.8,43c25.4,16.7,47.2,36.9,61.4,64.4c10.8,20.9,14.8,43.1,12.3,66.5
			c-3.1,28.5-14.9,53.6-30.9,76.9c-21.9,31.7-50.5,55.3-86.7,69.1c-17.4,6.6-35.3,10.1-53.7,10.1c-3.6,0-7.3-0.1-10.9-0.4
			c-28.5-2.2-52.1-14.2-71.1-35.8c-21.4-24.5-38.8-51.7-54.8-79.9c-13.3-23.5-25-47.7-35.4-73.5c-1.1,4.8-1.9,9-2.9,13
			c-4.2,17-9.4,33.7-19.1,48.5c-2.5,3.8-3.5,5.8-4.6,5.8c-1,0-2.1-1.9-4.7-6c-10.5-16.3-15.9-34.5-20.2-53.2
			c-0.6-2.5-1.1-5.1-1.7-8.3c-1.6,3.7-2.9,6.9-4.2,10c-18,42.2-39.9,82.3-66.9,119.5c-10.9,15-22.6,29.3-37.4,40.7
			c-12.6,9.7-27.1,15.1-42.6,17.5c-7.4,1.2-14.6,1.7-21.8,1.7c-23.6,0-46.2-6-68-16.6c-31.1-15.2-55.5-37.9-74.4-66.7
			c-12.4-18.9-22-39-26.4-61.3c-6.3-31.4-0.8-60.7,16.1-87.8c14.1-22.6,33.6-40,55.7-54.4c33.5-21.9,70.4-35.8,109-45.1
			c18.1-4.4,36.5-7.5,54.5-11.2c-0.5-0.1-1.4-0.3-2.3-0.4c-21.9-2-43.8-3.4-65.6-6.3c-24.1-3.1-48.1-7.1-72-11.5
			c-22.7-4.2-44.8-10.7-66.3-19.4c-20.9-8.5-33.7-24.4-43.4-43.8C104,450.8,95,422.8,86.9,394.4c-8-28.3-14.3-57-19.3-85.9
			c-3.6-20.7-6.4-41.6-9.1-62.5c-3.7-28.3-5.3-56.8-4.6-85.4c0.4-15.3,3.6-29.8,12.9-42.3c9.4-12.7,22.3-18.9,37.8-19.9
			c1.8-0.1,3.6-0.2,5.4-0.2c18.3,0,35.4,5.8,52.1,12.8c30.2,12.6,57.9,29.7,84.6,48.4c42.9,30,82.4,64.1,119.7,100.8
			c34.4,33.8,66.5,69.6,96.5,107.5c0.3,0.4,0.5,0.8,0.7,1.2c0.3-0.1,0.5-0.3,0.8-0.4c-0.9-3.7-1.9-7.4-2.6-11.2
			c-1.9-9.7-3.9-19.5-5.2-29.3c-1.1-8.1,0.2-15.8,7-21.6c0.5-0.4,0.1-2.6-0.4-3.6c-10.8-19.7-21.6-39.4-32.4-59
			c-10.5-19.1-21-38.1-31.5-57.2c-4.9-8.9-1.1-18.1,8.2-20.1c0.9-0.2,1.7-0.3,2.5-0.3c4.7,0,9,2.9,11.8,8
			c5.9,10.7,11.7,21.4,17.6,32c16.2,29.4,32.5,58.8,48.5,88.4c1.9,3.5,3.7,5,6.9,5c0.6,0,1.3,0,2-0.1c1-0.1,2-0.2,3.1-0.2
			c2.4,0,4.8,0.3,7.2,0.3c0.2,0,0.4,0,0.6,0c0.9,0,2.2-0.6,2.6-1.3c7.4-13.4,14.7-26.9,22.1-40.4c15.3-27.8,30.5-55.6,46-83.2
			c1.6-2.8,4.1-5.4,6.8-7.1c1.6-0.9,3.4-1.4,5.3-1.4c3.4,0,6.9,1.5,9.3,4c4,4.3,4.7,10,1.7,15.7c-4.4,8-8.8,16-13.2,24
			c-17,30.9-34,61.9-51.1,92.8c-1.1,2-1.4,3.3,0.7,5c4.7,3.9,6,9.4,6.1,15.2c0.2,11.5-2.8,22.6-5.3,33.7c-0.8,3.8-1.7,7.6-2.6,11.5
			c0.3,0.1,0.5,0.1,0.8,0.2c6.6-8.1,13.2-16.2,19.9-24.2c45.5-54.4,95.2-104.6,150.3-149.4c32.2-26.2,66-50.3,102.7-69.9
			c19.9-10.6,40.4-19.9,62.7-24.5C878.1,98.9,884.3,98.1,890.4,98.1 M468.9,532.6c1.1,0,2-0.3,1.7-2.5c-1.9-13.7-3.4-27.5-5.4-41.2
			c-3.4-24.1-7-48.2-10.8-72.2c-0.7-4.3-0.1-9-3.3-12.9c-16.8-20.3-33-41-50.5-60.8c-17.7-20.1-36.2-39.5-55.2-58.5
			c-17.3-17.2-35.6-33.4-53.5-50c-0.9-0.8-1.8-1.7-2.7-2.5c-5.8-4.9-11.6-9.7-17.5-14.5c-0.3-0.4-0.5-0.8-0.8-1
			c-21.4-17.4-43.4-34-66.8-48.7c-21.3-13.4-43.3-25.4-67.4-33.1c-9-2.9-18.1-5.3-27.6-5.3c-0.3,0-0.5,0-0.8,0
			c-5.1,0.1-9.9,0.9-13.6,4.8c-1.4,1.5-3.3,2.8-4.2,4.5c-4.4,7.9-5.5,16.5-5.5,25.4c-0.5,22.3,0.7,44.6,3.9,66.7
			c3.2,22.2,6.7,44.3,10.7,66.3c2.7,14.9,6.4,29.7,9.9,44.5c1.5,6.6,3.5,13,5.3,19.5c2.4,9,4.9,18.1,7.3,27.1
			c0.9,2.8,1.8,5.6,2.8,8.3c7.1,19.2,16.1,37.5,27.9,54.3c5.7,8.2,11.9,16.2,19.9,22.4c12.2,9.5,25.6,16.8,39.7,23
			c14.9,6.6,30.4,11.5,46.3,14.6c19.3,3.7,38.5,7.2,57.9,10.4c17.6,2.9,35.2,5.3,52.8,8c1.2,0.2,2.3,0.5,3.5,0.6
			c2.2,0.2,4.5,0.1,6.7,0.2c9.2,0.8,18.5,1.6,27.7,2.4c20.1,0,40.2,0.1,60.3,0.1C468,532.5,468.5,532.6,468.9,532.6 M532.5,532.6
			C532.5,532.6,532.5,532.6,532.5,532.6c20-0.1,39.8-0.1,59.7-0.2c11.8-1,23.7-2,35.5-3c0.3,0,0.6,0,1,0c0.3-0.1,0.5-0.2,0.8-0.2
			c6.5-0.8,13-1.3,19.4-2.4c27-4.5,53.9-9.4,80.9-13.9c23.6-3.9,46.3-10.6,67.7-21.4c12.7-6.4,25.3-13.1,35.4-23.3
			c11.7-11.7,20.3-25.7,28.1-40.2c7-13.1,12.9-26.8,17-41.1c2.5-8.8,5-17.6,7.5-26.3c1.5-5.8,3.1-11.5,4.4-17.3
			c5.6-26.2,11.8-52.3,16.5-78.6c3.5-20,5.7-40.4,7.4-60.6c1.2-15,0.6-30.1,0.9-45.2c-0.2-1.8-0.4-3.6-0.5-5.3
			c-0.7-7.7-3.3-14.6-9.3-19.8c-2.6-1.2-5.2-3.2-7.9-3.4c-2.6-0.1-5.2-0.3-7.9-0.3c-3.4,0-6.9,0.2-10.2,0.9
			c-23.5,4.6-44.7,14.8-65.4,26.4c-20.1,11.3-39.2,24.3-57.5,38.2c-9.4,7.1-18.5,14.7-27.7,22.1c-2.6,2.1-5.2,4.1-7.7,6.2
			c-4.1,3.5-8.2,7.2-12.2,10.8c-0.7,0.4-1.4,0.7-2,1.2c-7.4,6.6-14.8,13.2-22.1,19.9c-26.5,24.6-52.1,50.1-76,77.3
			c-20.3,23.1-39.5,47.1-59.2,70.8c-0.9,1.1-1.7,2.5-2,3.8c-1.9,11.5-3.7,22.9-5.3,34.4c-4.1,29-8,58-12.2,87
			C528.9,531.8,529.7,532.6,532.5,532.6 M535.6,369l0.1-0.2l-0.1,0L535.6,369 M301,873.1c9.2,0,18.6-1.4,28.3-4.3
			c15.8-4.8,28.8-13.6,39.2-26.2c3-3.2,6.1-6.3,8.9-9.7c4.9-6,9.5-12.3,14.2-18.4c0.9-1,1.9-1.9,2.7-3c10.9-15.7,21-32,30-48.9
			c14.1-26.6,26.2-54.1,35.4-82.8c3.7-11.4,6.6-23,7.2-35c1-20.3,1.5-40.6,2.1-60.8c0.2-1.8,0.4-3.5,0.6-5.2
			c0.3-2.5-0.8-3.5-3.2-3.5c0,0,0,0,0,0c-10,0-19.9,0-29.9,0c-14.7,1.2-29.5,1.8-44.1,3.6c-20.8,2.5-41.3,7-61.5,12.8
			c-22,6.3-43.2,14.4-63.4,25c-28,14.6-53.4,32.8-73,58c-8.6,11-15.4,23-18.9,36.7c-0.4,0.5-1,0.9-1.1,1.5
			c-0.6,3.7-1.4,7.5-1.4,11.2c0.1,8,0.6,15.9,1,23.9c1.8,6.7,3.1,13.6,5.4,20.2c4.2,12.7,10.9,24.2,18,35.5
			c12.2,19.3,26.6,36.6,45.4,49.8C261.1,866,280.4,873.1,301,873.1 M698.7,873.1c15.6,0,30.7-4.1,45.4-11.9
			c15.4-8.2,28.3-19.5,39.7-32.5c10.8-12.4,19.7-26,27.5-40.4c7.1-13.2,12.6-26.9,14.8-41.8c0.3-2.3,0.6-4.6,0.9-6.9
			c0.9-8.4-0.2-16.7-1.8-24.9c-0.5-2.3-1-4.6-1.7-6.8c-6.3-19.9-18.5-35.9-33.2-50.2c-24.8-24.4-54.5-41.2-86.5-54.1
			c-26.7-10.7-54.4-18.1-82.9-22.6c-17.6-2.8-35.3-5.2-53.1-5.2c-1.1,0-2.2,0-3.4,0l0,0c-0.2-0.2-0.5-0.4-0.7-0.6
			c-6.7,0-13.5-0.1-20.2-0.1c-2.8,0-5.5,0-8.3,0c-4.7,0-4.9,0.5-4.7,5.4c0.8,17.6,2.4,35.1,2.2,52.7c-0.2,19.5,4.1,37.8,10.4,55.8
			c7.1,20.3,15.4,40.2,25.1,59.4c11.5,22.9,24.2,45,39.4,65.7c5,6.4,9.8,12.9,14.9,19.2c2.7,3.3,5.8,6.2,8.7,9.2l0,0
			c0.1,0.2,0.3,0.4,0.4,0.7c10.9,12.3,24,21.1,40.1,25.7C681,871.8,690,873.1,698.7,873.1 M890.4,83.1c-6.7,0-13.7,0.8-21.5,2.4
			c-26.1,5.4-49.3,16.7-66.7,26c-34.1,18.2-67.5,40.9-105.1,71.5c-48.4,39.4-95,84.9-138.8,135.5c-0.6-5.8-2.2-10.8-4.8-15
			c12.3-22.3,24.8-44.9,36.8-66.8l10.7-19.5c1.4-2.6,2.9-5.2,4.3-7.9c2.9-5.3,6-10.8,8.9-16.3c6.1-11.3,4.6-24-3.9-33.1
			c-5.2-5.6-12.6-8.8-20.2-8.8c-4.6,0-9,1.2-12.9,3.4c-5,2.9-9.5,7.6-12.4,12.7c-14.7,26.3-29.4,53-43.6,78.9l-2.4,4.4
			c-3.3,6-6.6,12-9.8,17.9c-2.8,5.2-5.7,10.5-8.6,15.7c-0.3,0-0.6,0-0.9,0c-0.2,0-0.3,0-0.5,0c-11.5-21.3-23.3-42.8-34.8-63.6
			c-4-7.2-8-14.5-12-21.7c-2.5-4.4-4.9-8.9-7.3-13.4c-3.4-6.2-6.8-12.4-10.3-18.7c-5.4-9.9-14.8-15.8-24.9-15.8
			c-1.9,0-3.9,0.2-5.8,0.6c-8.9,2-16.1,7.6-19.7,15.5c-3.7,8.2-3.2,17.8,1.5,26.4c7.2,13.1,14.5,26.4,21.6,39.2
			c3.3,6,6.6,12,10,18.1l4.3,7.8c8.1,14.7,16.4,29.8,24.6,44.7c-2.4,3.9-4.3,8.8-5,14.8c-20.7-23.9-42.3-46.9-64.5-68.8
			c-41.4-40.7-81.2-74.2-121.6-102.4c-33.1-23.1-60.1-38.5-87.4-49.9c-17.4-7.3-36.5-14-57.9-14c-2.1,0-4.2,0.1-6.3,0.2
			c-20.8,1.3-37.2,10.1-49,26c-10.1,13.8-15.3,30.4-15.8,50.9c-0.7,28.4,0.9,57.9,4.8,87.7c2.8,21.4,5.5,42.3,9.2,63.2
			c5.6,31.8,12,60.4,19.7,87.4c7.4,26,16.9,56.5,31.4,85.5c12.9,25.9,29.2,42.1,51.2,51c22.4,9.1,45.7,15.9,69.2,20.3
			c18.9,3.5,36.4,6.5,52.9,8.9c-30.9,9.9-57.9,22.5-82,38.3c-26.6,17.4-46.2,36.7-60.2,59c-19,30.5-25.1,63.7-18.1,98.7
			c4.5,22.4,13.8,44.2,28.6,66.6c21,31.9,48.1,56.1,80.4,71.9c24.7,12,49.8,18.2,74.6,18.2c8,0,16.1-0.6,24.1-1.9
			c19-3,35.6-9.8,49.5-20.5c17.2-13.2,30.1-29.6,40.4-43.8c20.6-28.5,39.3-60,55.6-94c3.3,8.6,7.4,17.1,12.7,25.3l0.8,1.3
			c3.1,4.9,7.4,11.5,16.5,11.5c9.1,0,13.4-6.9,15.8-10.6c0.4-0.6,0.8-1.3,1.3-2c5.4-8.2,9.5-16.8,12.7-25.3
			c5.9,12.2,12.2,24.2,19.1,36.4c19.3,34.2,37.3,60.4,56.6,82.4c21.6,24.7,49,38.5,81.2,40.9c4,0.3,8,0.5,12,0.5
			c19.8,0,39.7-3.7,59-11.1c38-14.5,69.5-39.6,93.7-74.6C871,803,882,775.6,885,747.4c2.9-26.4-1.8-51.6-13.8-75
			c-13.8-26.9-35.6-49.8-66.5-70c-24.1-15.8-50.9-28.4-81.2-38.1c18-2.7,36.8-6,55.9-9.8c25.8-5.1,48-11.9,67.9-20.8
			c18.2-8.1,31.7-19.9,40.2-35.1c6.9-12.4,13.1-23.7,18.1-35.9c18-43.4,30.9-91,41.9-154.4c4.1-23.7,7-47.8,9.8-71.1l0.6-5.3
			c2.6-21.7,3.7-44.6,3.3-68.3c-0.2-8.7-0.8-20.1-4.6-31.7c-7.3-22.5-21.1-37.6-40.9-44.8C907.9,84.5,899.4,83.1,890.4,83.1
			L890.4,83.1z M105.4,144.8c0.3-0.1,1.1-0.3,3.2-0.3c0.2,0,0.4,0,0.6,0c7.7,0,15.6,2.2,23.1,4.6c24.9,7.9,47.3,21,64,31.5
			c19.9,12.5,40.4,27.4,64.2,46.7l0.8,0.9l1.1,0.9l4.3,3.6c4.4,3.6,8.8,7.3,13.1,10.9c0.3,0.3,0.8,0.7,1.3,1.1
			c0.3,0.3,0.6,0.6,0.9,0.8c5.5,5.1,11.1,10.2,16.5,15.2c12.2,11.1,24.8,22.7,36.5,34.4c19.5,19.5,37.8,38.9,54.5,57.8
			c11.4,12.9,22.6,26.7,33.4,40c5.2,6.5,10.7,13.1,16.1,19.6c0.1,0.6,0.1,1.4,0.2,2c0.1,1.3,0.2,2.8,0.5,4.4
			c3.5,22.7,7.1,46.3,10.7,72c1,7.2,2,14.6,2.8,21.7c0.2,1.6,0.4,3.2,0.6,4.8c-11.5,0-23,0-34.2-0.1l-11.6,0
			c-2.3-0.2-4.5-0.4-6.8-0.6c-6.7-0.6-13.6-1.2-20.4-1.7c-1.7-0.1-3.2-0.2-4.6-0.2c-0.8,0-1.5,0-2.1-0.1c-0.2,0-0.4-0.1-0.6-0.1
			c-0.5-0.1-1-0.2-1.5-0.3l-0.2,0l-0.2,0c-5.4-0.8-10.8-1.6-16.2-2.4c-12-1.7-24.3-3.5-36.4-5.5c-17.2-2.9-36-6.3-57.5-10.4
			c-14.5-2.8-29-7.3-43.1-13.5c-15-6.6-26.6-13.3-36.5-21.1c-6.6-5.2-12-12.3-16.8-19.2c-10.5-15-19-31.7-26.1-50.9
			c-0.6-1.6-1.1-3.3-1.7-5.1c-0.3-0.8-0.5-1.6-0.8-2.3l-7.2-26.7l0,0l0,0c-0.6-2.1-1.2-4.1-1.8-6.2c-1.3-4.4-2.4-8.6-3.4-12.7
			c-0.7-3-1.4-6-2.1-9c-2.7-11.4-5.5-23.2-7.6-34.7c-3.8-21-7.4-43.1-10.6-65.7c-2.9-20.4-4.2-42-3.7-64.3v-0.1v-0.1
			c0-7.7,1-13,3.2-17.3c0.1-0.1,0.2-0.2,0.3-0.3C104,146.2,104.7,145.6,105.4,144.8L105.4,144.8z M715,247.8
			c0.2-0.1,0.4-0.2,0.6-0.3l1.3-0.7l1.1-1c1.2-1.1,2.4-2.2,3.7-3.2c2.8-2.4,5.6-5,8.4-7.4c1.5-1.3,3.1-2.6,4.8-3.9
			c0.8-0.7,1.7-1.3,2.5-2c2.9-2.3,5.8-4.7,8.6-6.9c6.1-5,12.5-10.1,18.8-14.9c19.2-14.6,37.5-26.8,55.8-37.1
			c17.3-9.8,38.1-20.4,60.9-24.8c2-0.4,4.4-0.6,7.3-0.6c1.8,0,3.7,0.1,5.5,0.2c0.2,0.1,0.5,0.2,0.6,0.4c0.3,0.2,0.6,0.3,0.9,0.5
			c1.4,1.6,2.6,4,3.1,8.8c0.1,1.3,0.3,2.5,0.4,3.8l0.1,0.8c-0.1,4.5,0,8.9,0,13.3c0,10.4,0,20.3-0.8,30c-1.9,23.5-4.2,42.3-7.2,59.2
			c-3.4,19-7.6,38.3-11.8,57c-1.5,6.9-3.1,14-4.6,21.1c-0.8,3.6-1.8,7.3-2.8,11.2c-0.5,1.8-1,3.6-1.4,5.4l-3.7,13l-3.8,13.2l0,0l0,0
			c-3.5,12.3-8.6,24.8-15.8,38.1c-6.3,11.9-14.3,25.5-25.5,36.7c-8.5,8.6-19.8,14.6-31.5,20.5c-18.8,9.5-39.5,16-63.4,20
			c-14.4,2.4-29,5-43.2,7.4c-12.4,2.1-25.1,4.4-37.7,6.5c-4,0.7-8.1,1.1-12.5,1.6c-2.1,0.2-4.2,0.5-6.3,0.7l-0.8,0.1l-0.4,0l-34.9,3
			c-4.6,0-9.2,0-13.7,0c-10.4,0-21,0-31.7,0.1c1.5-10.8,3-21.6,4.5-32.2c1.9-13.6,3.8-27.6,5.8-41.4c1.5-10.9,3.3-22,4.9-31.9
			c5.3-6.4,10.7-13,15.9-19.3c13.6-16.6,27.7-33.7,42-50c21.1-24,45.6-48.9,74.9-76.2c5.4-5,11-10,16.5-14.9
			C712.1,250.4,713.5,249.1,715,247.8L715,247.8z M619.8,805.3c-13-17.7-25.1-37.8-38-63.4c-9.2-18.2-17.3-37.5-24.4-57.6
			c-6.7-19.2-9.8-35.3-9.6-50.7c0.2-12.7-0.6-25.4-1.3-37.6c-0.1-1.9-0.2-3.8-0.3-5.7c3.1,0,6.2,0,9.2,0c1,0,2,0,3,0l97.5,80.2
			l-59.6-77.9c7.6,0.9,15.1,2,22.4,3.2c28.1,4.5,54.9,11.8,79.7,21.7c33.9,13.6,60.6,30.3,81.6,50.9c15.3,15,24.6,29,29.4,44.1
			c0.3,0.9,0.5,2.1,0.8,3.4c0.2,0.7,0.3,1.4,0.5,2.1c1.2,6.1,2.3,13.2,1.6,20c-0.2,1.4-0.3,2.8-0.5,4.4c-0.1,0.7-0.2,1.4-0.3,2.1
			c-1.7,11.7-5.9,23.4-13.1,36.7c-7.9,14.7-16.3,27-25.6,37.6c-11.3,13-22.9,22.5-35.4,29.2c-12.8,6.8-25.4,10.1-38.4,10.1
			c-7.4,0-15-1.1-22.7-3.3c-12.5-3.6-23-10.3-32.2-20.3l-0.1-0.1l-0.7-1l-0.8-0.9c-1-1.1-2-2.1-3-3c-1.8-1.9-3.6-3.7-5-5.4
			c-3.5-4.3-6.8-8.6-10.3-13.2C622.6,809,621.2,807.1,619.8,805.3L619.8,805.3z M437,590.3l7.4,0c3.1,0,6.2,0,9.3,0
			c-0.1,3.7-0.2,7.5-0.4,11.2c-0.4,14-0.9,28.4-1.6,42.6c-0.4,9-2.4,18.6-6.5,31.1c-8.6,26.7-19.8,53-34.4,80.3
			c-8.4,15.8-18.1,31.7-28.9,47.1c-0.1,0.1-0.3,0.3-0.5,0.5c-0.4,0.4-0.8,0.9-1.2,1.3l-0.4,0.4l-0.3,0.4c-1.4,1.8-2.8,3.7-4.2,5.5
			c-3.3,4.4-6.5,8.5-9.8,12.6c-1.5,1.9-3.3,3.8-5.3,5.8c-1,1-2,2.1-3,3.2l-0.3,0.3l-0.3,0.3c-8.7,10.5-19.2,17.5-32,21.4
			c-8.1,2.5-16.2,3.7-24,3.7c-16.8,0-33-5.6-49.5-17.2c-15.4-10.8-28.5-25.2-41.4-45.5c-6.3-9.9-12.6-20.7-16.4-32.2
			c-1.3-4-2.4-8.2-3.4-12.7c-0.4-1.6-0.8-3.3-1.2-5c-0.1-1.8-0.2-3.7-0.3-5.5c-0.3-5.6-0.6-11-0.6-16.3c0-1.3,0.3-3,0.6-5l0.6-0.8
			l0.8-3c2.6-10.4,7.8-20.3,16.2-31.1c16.4-21.1,38-38.2,68.1-53.9c18.5-9.7,38.3-17.4,60.6-23.8c21-6,40.3-10.1,59.1-12.4
			c9.7-1.2,19.4-1.9,29.7-2.6C428.1,590.9,432.6,590.6,437,590.3L437,590.3z"/>
	</g>
</g>
<g id="Butterfly">
	<path class="st2" d="M536.5,368.2c6.6-8.1,13.2-16.2,19.9-24.2c45.5-54.4,95.2-104.6,150.3-149.4c32.2-26.2,66-50.3,102.7-69.9
		c19.9-10.6,40.4-19.9,62.7-24.5c13-2.7,26-3.3,38.7,1.3c16.8,6.1,26.4,18.8,31.8,35.3c2.9,8.9,3.7,18.1,3.8,27.3
		c0.4,22.1-0.5,44.2-3.2,66.2c-3.1,25.3-6,50.6-10.4,75.6c-9,51.6-20.8,102.6-40.9,151.2c-4.9,11.8-11.1,23.1-17.4,34.3
		c-7.5,13.5-19.2,22.5-33.2,28.7c-20.8,9.2-42.5,15.3-64.7,19.7c-20.5,4.1-41.1,7.7-61.8,10.7c-17.3,2.5-34.7,3.9-52,5.7
		c-9.1,0.9-18.2,1.4-27.3,2.2c-0.9,0.1-1.8,0.4-2.5,0c21,4.5,42.1,8.3,62.9,13.6c35.7,9.1,69.8,22.6,100.8,43
		c25.4,16.7,47.2,36.9,61.4,64.4c10.8,20.9,14.8,43.1,12.3,66.5c-3.1,28.5-14.9,53.6-30.9,76.9c-21.9,31.7-50.5,55.3-86.7,69.1
		c-20.8,8-42.4,11.4-64.6,9.7c-28.5-2.2-52.1-14.2-71.1-35.8c-21.4-24.5-38.8-51.7-54.8-79.9c-13.3-23.5-25-47.7-35.4-73.5
		c-1.1,4.8-1.9,9-2.9,13c-4.2,17-9.4,33.7-19.1,48.5c-4.9,7.5-4,8.1-9.3-0.1c-10.5-16.3-15.9-34.5-20.2-53.2
		c-0.6-2.5-1.1-5.1-1.7-8.3c-1.6,3.7-2.9,6.9-4.2,10c-18,42.2-39.9,82.3-66.9,119.5c-10.9,15-22.6,29.3-37.4,40.7
		c-12.6,9.7-27.1,15.1-42.6,17.5c-31.5,4.9-61.4-1.1-89.9-14.9c-31.1-15.2-55.5-37.9-74.4-66.7c-12.4-18.9-22-39-26.4-61.3
		c-6.3-31.4-0.8-60.7,16.1-87.8c14.1-22.6,33.6-40,55.7-54.4c33.5-21.9,70.4-35.8,109-45.1c18.1-4.4,36.5-7.5,54.5-11.2
		c-0.5-0.1-1.4-0.3-2.3-0.4c-21.9-2-43.8-3.4-65.6-6.3c-24.1-3.1-48.1-7.1-72-11.5c-22.7-4.2-44.8-10.7-66.3-19.4
		c-20.9-8.5-33.7-24.4-43.4-43.8C104,450.8,95,422.8,86.9,394.4c-8-28.3-14.3-57-19.3-85.9c-3.6-20.7-6.4-41.6-9.1-62.5
		c-3.7-28.3-5.3-56.8-4.6-85.4c0.4-15.3,3.6-29.8,12.9-42.3c9.4-12.7,22.3-18.9,37.8-19.9c20.4-1.3,39.1,5,57.5,12.7
		c30.2,12.6,57.9,29.7,84.6,48.3c42.9,30,82.4,64.1,119.7,100.8c34.4,33.8,66.5,69.6,96.5,107.5c0.3,0.4,0.5,0.8,0.7,1.2
		c0.3-0.1,0.5-0.3,0.8-0.4c-0.9-3.7-1.9-7.4-2.6-11.2c-1.9-9.7-3.9-19.5-5.2-29.3c-1.1-8.1,0.2-15.8,7-21.6c0.5-0.4,0.1-2.6-0.4-3.6
		c-10.8-19.7-21.6-39.4-32.4-59c-10.5-19.1-21-38.1-31.5-57.2c-4.9-8.9-1.1-18.1,8.2-20.1c5.6-1.2,11,1.6,14.4,7.7
		c5.9,10.7,11.7,21.4,17.6,32c16.2,29.4,32.5,58.8,48.5,88.4c2.3,4.2,4.4,5.4,8.9,4.8c3.5-0.5,7.2,0.1,10.8,0.1
		c0.9,0,2.2-0.6,2.6-1.3c7.4-13.4,14.7-26.9,22-40.4c15.3-27.8,30.5-55.6,46-83.2c1.6-2.8,4.1-5.4,6.8-7.1
		c4.7-2.7,10.9-1.2,14.5,2.7c4,4.3,4.7,10,1.7,15.7c-4.4,8-8.8,16-13.2,24c-17,30.9-34,61.9-51.1,92.8c-1.1,2-1.4,3.3,0.7,5
		c4.7,3.9,6,9.4,6.1,15.2c0.2,11.5-2.8,22.6-5.3,33.7c-0.8,3.8-1.7,7.6-2.6,11.5C536,368,536.2,368.1,536.5,368.2z M564.5,575.9
		c-0.2-0.2-0.5-0.4-0.7-0.6c-9.5,0-19-0.1-28.5,0c-4.7,0-4.9,0.5-4.7,5.4c0.8,17.6,2.4,35.1,2.2,52.7c-0.2,19.5,4.1,37.8,10.4,55.8
		c7.1,20.3,15.4,40.2,25.1,59.4c11.5,22.9,24.2,45,39.4,65.7c5,6.4,9.8,12.9,14.9,19.2c2.7,3.3,5.8,6.2,8.7,9.2l0,0
		c0.1,0.2,0.3,0.4,0.4,0.7c10.9,12.3,24,21.1,40.1,25.7c25.3,7.3,49.3,4.3,72.3-8c15.4-8.2,28.3-19.5,39.7-32.5
		c10.8-12.4,19.7-26,27.5-40.4c7.1-13.2,12.6-26.9,14.8-41.8c0.3-2.3,0.6-4.6,0.9-6.9c0.9-8.4-0.2-16.7-1.8-24.9
		c-0.5-2.3-1-4.6-1.7-6.8c-6.3-19.9-18.5-35.9-33.2-50.2c-24.8-24.4-54.5-41.2-86.5-54.1c-26.7-10.7-54.4-18.1-82.9-22.6
		C602.2,578,583.4,575.5,564.5,575.9L564.5,575.9z M391.6,814.5c0.9-1,1.9-1.9,2.7-3c10.9-15.7,21-32,30-48.9
		c14.1-26.6,26.2-54.1,35.4-82.8c3.7-11.4,6.6-23,7.2-35c1-20.3,1.5-40.6,2.1-60.8c0.2-1.8,0.4-3.5,0.6-5.2c0.3-2.5-0.9-3.5-3.3-3.5
		c-10,0-19.9,0-29.9,0c-14.7,1.2-29.5,1.8-44.1,3.6c-20.8,2.5-41.3,7-61.5,12.8c-22,6.3-43.2,14.4-63.4,25c-28,14.6-53.4,32.8-73,58
		c-8.6,11-15.4,23-18.9,36.7c-0.4,0.5-1,0.9-1.1,1.5c-0.6,3.7-1.4,7.5-1.4,11.2c0.1,8,0.6,15.9,1,23.9c1.8,6.7,3.1,13.6,5.4,20.2
		c4.2,12.7,10.9,24.2,18,35.5c12.2,19.3,26.6,36.6,45.4,49.8c26.4,18.5,54.9,25.1,86.4,15.5c15.8-4.8,28.8-13.6,39.2-26.2
		c3-3.2,6.1-6.3,8.9-9.7C382.3,826.8,386.9,820.6,391.6,814.5z M85,164.1c-0.5,22.3,0.7,44.6,3.9,66.7c3.2,22.2,6.7,44.3,10.7,66.3
		c2.7,14.9,6.4,29.7,9.9,44.5c1.5,6.6,3.5,13,5.3,19.5c2.4,9,4.9,18.1,7.3,27.1c0.9,2.8,1.8,5.6,2.8,8.3
		c7.1,19.2,16.1,37.5,27.9,54.3c5.7,8.2,11.9,16.2,19.9,22.4c12.2,9.5,25.6,16.8,39.7,23c14.9,6.6,30.4,11.5,46.3,14.6
		c19.3,3.7,38.5,7.2,57.9,10.4c17.6,2.9,35.2,5.3,52.8,8c1.2,0.2,2.3,0.5,3.5,0.6c2.2,0.2,4.5,0.1,6.7,0.2
		c9.2,0.8,18.5,1.6,27.7,2.4c20.1,0,40.2,0.1,60.3,0.1c1.5,0,3.4,0.6,3-2.5c-1.9-13.7-3.4-27.5-5.4-41.2c-3.4-24.1-7-48.2-10.8-72.2
		c-0.7-4.3-0.1-9-3.3-12.9c-16.8-20.3-33-41-50.5-60.8c-17.7-20.1-36.2-39.5-55.2-58.5c-17.3-17.2-35.6-33.4-53.5-50
		c-0.9-0.8-1.8-1.7-2.7-2.5c-5.8-4.9-11.6-9.7-17.5-14.5c-0.3-0.4-0.5-0.8-0.8-1c-21.4-17.4-43.4-34-66.8-48.7
		c-21.3-13.4-43.3-25.4-67.4-33.1c-9.3-2.9-18.6-5.4-28.4-5.3c-5.1,0.1-9.9,0.9-13.6,4.8c-1.4,1.5-3.3,2.8-4.2,4.5
		C86.1,146.6,85.1,155.3,85,164.1z M885.4,360.5c1.5-5.8,3.1-11.5,4.4-17.3c5.6-26.2,11.8-52.3,16.5-78.6c3.5-20,5.7-40.4,7.4-60.6
		c1.2-15,0.6-30.1,0.9-45.2c-0.2-1.8-0.4-3.6-0.5-5.3c-0.7-7.7-3.3-14.6-9.3-19.8c-2.6-1.2-5.2-3.2-7.9-3.4
		c-6-0.4-12.2-0.6-18.1,0.6c-23.5,4.6-44.7,14.8-65.4,26.4c-20.1,11.3-39.2,24.3-57.5,38.2c-9.4,7.1-18.5,14.7-27.7,22.1
		c-2.6,2.1-5.2,4.1-7.7,6.2c-4.1,3.5-8.2,7.2-12.2,10.8c-0.7,0.4-1.4,0.7-2,1.2c-7.4,6.6-14.8,13.2-22.1,19.9
		c-26.5,24.6-52.1,50.1-76,77.3c-20.3,23.1-39.5,47.1-59.2,70.8c-0.9,1.1-1.7,2.5-2,3.8c-1.9,11.5-3.7,22.9-5.3,34.4
		c-4.1,29-8,58-12.2,87c-0.4,2.9,0.4,3.7,3.2,3.7c19.9-0.1,39.7-0.1,59.6-0.2c11.8-1,23.7-2,35.5-3c0.3,0,0.6,0,1,0
		c0.3-0.1,0.5-0.2,0.8-0.2c6.5-0.8,13-1.3,19.4-2.4c27-4.5,53.9-9.4,80.9-13.9c23.6-3.9,46.3-10.6,67.7-21.4
		c12.7-6.4,25.3-13.1,35.4-23.3c11.7-11.7,20.3-25.7,28.1-40.2c7-13.1,12.9-26.8,17-41.1C880.4,378.1,882.9,369.3,885.4,360.5z
		 M535.6,369l0.1-0.2l-0.1,0L535.6,369z"/>
	<path class="st2" d="M536.5,368.2c6.6-8.1,13.2-16.2,19.9-24.2c45.5-54.4,95.2-104.6,150.3-149.4c32.2-26.2,66-50.3,102.7-69.9
		c19.9-10.6,40.4-19.9,62.7-24.5c13-2.7,26-3.3,38.7,1.3c16.8,6.1,26.4,18.8,31.8,35.3c2.9,8.9,3.7,18.1,3.8,27.3
		c0.4,22.1-0.5,44.2-3.2,66.2c-3.1,25.3-6,50.6-10.4,75.6c-9,51.6-20.8,102.6-40.9,151.2c-4.9,11.8-11.1,23.1-17.4,34.3
		c-7.5,13.5-19.2,22.5-33.2,28.7c-20.8,9.2-42.5,15.3-64.7,19.7c-20.5,4.1-41.1,7.7-61.8,10.7c-17.3,2.5-34.7,3.9-52,5.7
		c-9.1,0.9-18.2,1.4-27.3,2.2c-0.9,0.1-1.8,0.4-2.5,0c21,4.5,42.1,8.3,62.9,13.6c35.7,9.1,69.8,22.6,100.8,43
		c25.4,16.7,47.2,36.9,61.4,64.4c10.8,20.9,14.8,43.1,12.3,66.5c-3.1,28.5-14.9,53.6-30.9,76.9c-21.9,31.7-50.5,55.3-86.7,69.1
		c-20.8,8-42.4,11.4-64.6,9.7c-28.5-2.2-52.1-14.2-71.1-35.8c-21.4-24.5-38.8-51.7-54.8-79.9c-13.3-23.5-25-47.7-35.4-73.5
		c-1.1,4.8-1.9,9-2.9,13c-4.2,17-9.4,33.7-19.1,48.5c-4.9,7.5-4,8.1-9.3-0.1c-10.5-16.3-15.9-34.5-20.2-53.2
		c-0.6-2.5-1.1-5.1-1.7-8.3c-1.6,3.7-2.9,6.9-4.2,10c-18,42.2-39.9,82.3-66.9,119.5c-10.9,15-22.6,29.3-37.4,40.7
		c-12.6,9.7-27.1,15.1-42.6,17.5c-31.5,4.9-61.4-1.1-89.9-14.9c-31.1-15.2-55.5-37.9-74.4-66.7c-12.4-18.9-22-39-26.4-61.3
		c-6.3-31.4-0.8-60.7,16.1-87.8c14.1-22.6,33.6-40,55.7-54.4c33.5-21.9,70.4-35.8,109-45.1c18.1-4.4,36.5-7.5,54.5-11.2
		c-0.5-0.1-1.4-0.3-2.3-0.4c-21.9-2-43.8-3.4-65.6-6.3c-24.1-3.1-48.1-7.1-72-11.5c-22.7-4.2-44.8-10.7-66.3-19.4
		c-20.9-8.5-33.7-24.4-43.4-43.8C104,450.8,95,422.8,86.9,394.4c-8-28.3-14.3-57-19.3-85.9c-3.6-20.7-6.4-41.6-9.1-62.5
		c-3.7-28.3-5.3-56.8-4.6-85.4c0.4-15.3,3.6-29.8,12.9-42.3c9.4-12.7,22.3-18.9,37.8-19.9c20.4-1.3,39.1,5,57.5,12.7
		c30.2,12.6,57.9,29.7,84.6,48.3c42.9,30,82.4,64.1,119.7,100.8c34.4,33.8,66.5,69.6,96.5,107.5c0.3,0.4,0.5,0.8,0.7,1.2
		c0.3-0.1,0.5-0.3,0.8-0.4c-0.9-3.7-1.9-7.4-2.6-11.2c-1.9-9.7-3.9-19.5-5.2-29.3c-1.1-8.1,0.2-15.8,7-21.6c0.5-0.4,0.1-2.6-0.4-3.6
		c-10.8-19.7-21.6-39.4-32.4-59c-10.5-19.1-21-38.1-31.5-57.2c-4.9-8.9-1.1-18.1,8.2-20.1c5.6-1.2,11,1.6,14.4,7.7
		c5.9,10.7,11.7,21.4,17.6,32c16.2,29.4,32.5,58.8,48.5,88.4c2.3,4.2,4.4,5.4,8.9,4.8c3.5-0.5,7.2,0.1,10.8,0.1
		c0.9,0,2.2-0.6,2.6-1.3c7.4-13.4,14.7-26.9,22-40.4c15.3-27.8,30.5-55.6,46-83.2c1.6-2.8,4.1-5.4,6.8-7.1
		c4.7-2.7,10.9-1.2,14.5,2.7c4,4.3,4.7,10,1.7,15.7c-4.4,8-8.8,16-13.2,24c-17,30.9-34,61.9-51.1,92.8c-1.1,2-1.4,3.3,0.7,5
		c4.7,3.9,6,9.4,6.1,15.2c0.2,11.5-2.8,22.6-5.3,33.7c-0.8,3.8-1.7,7.6-2.6,11.5C536,368,536.2,368.1,536.5,368.2z M535.6,369
		l0.1-0.2l-0.1,0L535.6,369z"/>
	
		<radialGradient id="SVGID_1_" cx="500.06" cy="3722.2058" r="314.7163" gradientTransform="matrix(1 0 0 1 0 -2998)" gradientUnits="userSpaceOnUse">
		<stop  offset="0" style="stop-color:#3298DA"/>
		<stop  offset="0.8" style="stop-color:#2576F4"/>
	</radialGradient>
	<path class="st3" d="M826,746.5c-2.2,14.9-7.6,28.6-14.8,41.8c-7.8,14.4-16.7,28-27.5,40.4c-11.4,13.1-24.3,24.4-39.7,32.5
		c-23,12.2-46.9,15.3-72.3,8c-16.1-4.6-29.1-13.3-40.1-25.7c-0.1-0.2-0.3-0.4-0.4-0.7l0,0c4.8-9.3,9.5-18.6,14.3-28
		c12.8-24.8,25.5-49.7,38.3-74.5c2.9-5.6,7.3-9.7,13.6-10.5c3.8-0.5,7.9,0,11.8,0.5c19.3,2.4,38.5,5,57.8,7.5
		c16.8,2.2,33.6,4.5,50.4,6.8C820.5,745,823.2,745.8,826,746.5z M347.6,802c-10.7-20.7-21.4-41.4-32.1-62.1
		c-4.4-8.4-11.8-11.6-21.5-10.2c-13,1.9-26,3.5-39.1,5.3c-14.5,2-28.9,4-43.4,5.9c-11.3,1.5-22.5,2.9-33.8,4.3
		c-1.7,0.2-3.5,0.3-3.6,2.6c1.8,6.7,3.1,13.6,5.4,20.2c4.2,12.7,10.9,24.2,18,35.5c12.2,19.3,26.6,36.6,45.4,49.8
		c26.4,18.5,54.9,25.1,86.4,15.5c15.8-4.8,28.8-13.6,39.2-26.2C361.6,829.1,354.6,815.5,347.6,802z M178.8,714.6
		c18.8-2.9,37.5-5.8,56.3-8.6c18-2.7,36-5.4,54-8.1c4.4-0.7,8.9-1.3,13.4-1.8c5-0.6,8.2-4,11.6-7.1c17.9-16.4,35.6-32.8,53.4-49.3
		c16.3-15,32.7-30,49-45c6.2-5.7,12.4-11.5,18.6-17.2c0.6-0.6,0.9-1.5,1.4-2.2c-14.7,1.2-29.5,1.8-44.1,3.6
		c-20.8,2.5-41.3,7-61.5,12.8c-22,6.3-43.2,14.4-63.4,25c-28,14.6-53.4,32.8-73,58c-8.6,11-15.4,23-18.9,36.7
		C175,714.9,175.2,715.1,178.8,714.6z M565.9,578.3c13.1,12.1,26.2,24.1,39.3,36.1c7.5,7,15,14,22.5,21
		c18.1,16.6,36.2,33.2,54.3,49.8c2.8,2.6,5.5,5.4,8.5,7.7c2.1,1.5,4.7,2.9,7.2,3.3c14.5,2.3,29.1,4.3,43.7,6.4
		c12.3,1.8,24.7,3.7,37,5.5c12,1.8,24,3.6,36,5.3c3.5,0.5,7.1,0.9,10.7,1.3c-0.5-2.3-1-4.6-1.7-6.8c-6.3-19.9-18.5-35.9-33.2-50.2
		c-24.8-24.4-54.5-41.2-86.5-54.1c-26.7-10.7-54.4-18.1-82.9-22.6c-18.7-3-37.5-5.5-56.5-5.1C564.9,576.7,565.2,577.7,565.9,578.3z
		 M614.5,803.5c11.2-20.4,22.3-40.9,33.5-61.4c3.6-6.5,7.2-13,10.7-19.5c4.8-9,4-14.1-3.4-21.4c-9.1-8.9-18.2-17.8-27.3-26.7
		c-9.6-9.3-19.2-18.4-28.8-27.7c-21.8-21.2-43.6-42.6-65.4-63.8c-0.9-0.9-2.2-1.6-3.3-2.3c0.8,17.6,2.4,35.1,2.2,52.7
		c-0.2,19.5,4.1,37.8,10.4,55.8c7.1,20.3,15.4,40.2,25.1,59.4c11.5,22.9,24.2,45,39.4,65.7C610,810.7,612.4,807.2,614.5,803.5z
		 M468.3,581.5c-0.7,0.5-1.5,0.9-2.1,1.5c-10.7,10.4-21.3,20.8-31.9,31.1c-16.8,16.4-33.6,32.7-50.4,49.1
		c-13.2,12.8-26.4,25.5-39.5,38.3c-7.4,7.2-7.9,12.9-2.8,21.7c6.3,11,12.2,22.3,18.4,33.5c10.6,19.3,21.2,38.5,31.8,57.7
		c0.9-1,1.9-1.9,2.6-3c10.9-15.7,21-32,30-48.9c14.1-26.6,26.2-54.1,35.4-82.8c3.7-11.4,6.6-23,7.2-35c1-20.3,1.5-40.6,2.1-60.8
		C468.8,583.1,468.5,582.3,468.3,581.5z"/>
	
		<radialGradient id="SVGID_2_" cx="502.5591" cy="3343.3193" r="404.9774" gradientTransform="matrix(1 0 0 1 0 -2998)" gradientUnits="userSpaceOnUse">
		<stop  offset="0" style="stop-color:#36BDBA"/>
		<stop  offset="0.6157" style="stop-color:#39D8AA"/>
	</radialGradient>
	<path class="st4" d="M292.1,234.5c17.9,16.6,36.2,32.8,53.5,50c19,18.9,37.4,38.4,55.2,58.5c17.4,19.7,33.6,40.5,50.5,60.8
		c3.2,3.8,2.6,8.5,3.3,12.9c3.8,24,7.3,48.1,10.8,72.2c2,13.7,3.5,27.5,5.4,41.2c0.4,3-1.4,2.5-3,2.5c-20.1,0-40.2-0.1-60.3-0.1
		c-11.7-18.2-23.4-36.3-35.1-54.5c-16.3-25.3-32.5-50.6-48.8-75.9c-16.9-26.2-33.8-52.4-50.5-78.7c-1.8-2.9-3.1-6.7-3-10.1
		c0-4.6,1.3-9.3,2.5-13.8c3.3-11.9,6.9-23.8,10.5-35.6C286,254.1,289.1,244.3,292.1,234.5z M621,488c7.9-12.3,15.9-24.5,23.8-36.9
		c8.4-13,16.7-26.2,25.1-39.2c8.3-13,16.8-25.9,25.1-38.8c9.8-15.2,19.2-30.8,29.5-45.7c5.7-8.2,7.2-16.2,3.8-25.4
		c-1.1-3.2-2-6.4-3-9.7c-5.8-19.3-11.6-38.6-17.3-57.8c-0.7,0.4-1.4,0.7-2,1.2c-7.4,6.6-14.8,13.2-22.1,19.9
		c-26.5,24.6-52.1,50.1-76,77.3c-20.3,23.1-39.5,47.1-59.2,70.8c-0.9,1.1-1.7,2.5-2,3.8c-1.9,11.5-3.7,22.9-5.3,34.4
		c-4.1,29-8,58-12.2,87c-0.4,2.9,0.4,3.7,3.2,3.7c19.9-0.1,39.7-0.1,59.6-0.2C601.8,517.6,611.4,502.8,621,488z M837.2,389.5
		c-8.2,0.5-16.4,1-24.6,1.5c-16.3,1.1-32.5,2.2-48.8,3.3c-8,0.5-16,0.9-23.9,1.5c-5.2,0.3-10.3,0.7-15.5,1.2
		c-10.6,1-18.6,6.7-24.5,15.1c-10.4,14.8-20.8,29.6-30.3,45.1c-14.3,23.3-27.7,47.2-41.4,70.8c-0.3,0.5-0.4,1-0.6,1.5
		c0.3,0,0.6,0,1,0c0.3-0.1,0.5-0.2,0.8-0.2c6.5-0.8,13-1.3,19.4-2.4c27-4.5,53.9-9.4,80.9-13.9c23.6-3.9,46.3-10.6,67.7-21.4
		c12.7-6.4,25.3-13.1,35.4-23.3c11.7-11.7,20.3-25.7,28.1-40.2c7-13.1,12.9-26.8,17-41.1C864.3,387.7,850.7,388.6,837.2,389.5z
		 M371.1,526.6c-16.9-28.5-33.4-57.2-50.7-85.4c-7.3-11.9-16.1-23.1-24.8-34.1c-5.7-7.2-14.2-10.1-23.3-10.7
		c-15.7-1-31.4-1.9-47.2-2.9c-17.2-1.1-34.4-2.3-51.5-3.4c-13.6-0.9-27.2-1.8-40.8-2.7c-2.7-0.2-5.4-0.5-8.1-0.5
		c-0.9,0-1.7,0.8-2.6,1.3c0.9,2.8,1.8,5.6,2.8,8.3c7.1,19.2,16.1,37.5,27.9,54.3c5.7,8.2,11.9,16.2,19.9,22.4
		c12.2,9.5,25.6,16.8,39.7,23c14.9,6.6,30.4,11.5,46.3,14.6c19.3,3.7,38.5,7.2,57.9,10.4c17.6,2.9,35.2,5.3,52.8,8
		C371.2,529.2,372.6,529.1,371.1,526.6z M88.9,230.8c3.2,22.2,6.7,44.3,10.7,66.3c2.7,14.9,6.4,29.7,9.9,44.5
		c1.5,6.6,3.5,13,5.3,19.5c15.8,1,31.7,1.9,47.5,2.9c6.5,0.4,13,0.9,19.5,1.3c16.3,1.1,32.5,2.2,48.8,3.3c5.9,0.4,11.9,1.3,17.8,1.1
		c5.3-0.2,10.6-1.3,15.8-2.5c2.6-0.6,4.1-3.1,3.5-5.8c-0.6-2.7-1.2-5.7-2.9-7.7c-5.4-6.6-11.1-13-16.9-19.3
		c-9.6-10.5-19.3-20.8-28.9-31.2c-14.3-15.6-28.6-31.2-43-46.8c-10-10.9-20.1-21.6-30.1-32.4c-18.1-19.6-36.2-39.3-54.3-58.9
		c-1.9-2-3.8-4-5.8-6.2c-0.3,2-0.6,3.6-0.9,5.2C84.6,186.4,85.7,208.7,88.9,230.8z M889.8,343.2c5.6-26.2,11.8-52.3,16.5-78.6
		c3.5-20,5.7-40.4,7.4-60.6c1.2-15,0.6-30.1,0.9-45.2c-5,5.3-10,10.6-15,16c-17.5,18.9-35.1,37.8-52.6,56.8
		c-19.8,21.4-39.6,42.8-59.4,64.2c-5.7,6.2-11.4,12.5-17.1,18.7c-8.8,9.5-17.7,18.9-26.3,28.6c-3.9,4.3-7.6,8.9-10.8,13.8
		c-3.3,5.1-1.1,10.3,4.8,11.7c4,0.9,8.2,1.5,12.3,1.3c9.1-0.3,18.2-1.1,27.3-1.8c17-1.1,33.9-2.3,50.8-3.4c14.9-1,29.9-1.9,44.8-2.9
		c4-0.3,8-0.8,12.1-1.2C886.9,354.8,888.5,349,889.8,343.2z M271.1,216.5c-21.4-17.4-43.4-34-66.8-48.7
		c-21.3-13.4-43.3-25.4-67.4-33.1c-9.3-2.9-18.6-5.4-28.4-5.3c-5.1,0.1-9.9,0.9-13.6,4.8c4.9,5.4,9.8,10.9,14.8,16.1
		c11.8,12.3,23.6,24.6,35.4,36.8c10.1,10.4,20.3,20.8,30.6,31.1c12.9,13.1,25.9,26.1,38.9,39.1c5.8,5.8,11.7,11.5,17.8,17.1
		c8.8,8.1,18.7,6.3,22.5-4.6c6.1-17.3,11.6-34.8,17.3-52.2C271.7,217.2,271.4,216.8,271.1,216.5z M896.7,130.2
		c-6-0.4-12.2-0.6-18.1,0.6c-23.5,4.6-44.7,14.8-65.4,26.4c-20.1,11.3-39.2,24.3-57.5,38.2c-9.4,7.1-18.5,14.7-27.7,22.1
		c1.7,5.5,3.3,11,5.1,16.4c4.2,12.5,8.3,25,12.9,37.3c2.7,7.3,8.7,9.7,15.8,6.7c2.9-1.2,5.7-3.2,8-5.5
		c11.6-11.4,23.2-22.9,34.6-34.5c22.5-22.9,45-45.8,67.5-68.8c10.5-10.7,20.7-21.6,31-32.5c0.8-0.8,1.2-2.1,1.7-3.1
		C902,132.4,899.4,130.4,896.7,130.2z"/>
	<path class="st2" d="M877.9,386.9c-13.6,0.9-27.2,1.7-40.7,2.6c-8.2,0.5-16.4,1-24.6,1.5c-16.3,1.1-32.5,2.2-48.8,3.3
		c-8,0.5-16,0.9-23.9,1.5c-5.2,0.3-10.3,0.7-15.5,1.2c-10.6,1-18.6,6.7-24.5,15.1c-10.4,14.8-20.8,29.6-30.3,45.1
		c-14.3,23.3-27.7,47.2-41.4,70.8c-0.3,0.5-0.4,1-0.6,1.5c-11.8,1-23.7,2-35.5,3c9.6-14.8,19.2-29.7,28.8-44.5
		c7.9-12.3,15.9-24.5,23.8-36.9c8.4-13,16.7-26.2,25.1-39.2c8.3-13,16.8-25.9,25.1-38.8c9.8-15.2,19.2-30.8,29.5-45.7
		c5.7-8.2,7.2-16.2,3.8-25.4c-1.1-3.2-2-6.4-3-9.7c-5.8-19.3-11.6-38.6-17.3-57.8c4.1-3.6,8.1-7.2,12.2-10.8
		c2.5-2.2,5.2-4.2,7.7-6.2c1.7,5.5,3.3,11,5.1,16.4c4.2,12.5,8.3,25,12.9,37.3c2.7,7.3,8.7,9.7,15.8,6.7c2.9-1.2,5.7-3.2,8-5.5
		c11.6-11.4,23.2-22.9,34.6-34.5c22.5-22.9,45-45.8,67.5-68.8c10.5-10.7,20.7-21.6,31-32.5c0.8-0.8,1.2-2.1,1.7-3.1
		c6,5.2,8.5,12.1,9.3,19.8c0.2,1.8,0.4,3.6,0.6,5.3c-5,5.3-10,10.6-15,16c-17.5,18.9-35.1,37.8-52.6,56.8
		c-19.8,21.4-39.6,42.8-59.4,64.2c-5.7,6.2-11.4,12.5-17.1,18.7c-8.8,9.5-17.7,18.9-26.3,28.6c-3.9,4.3-7.6,8.9-10.8,13.8
		c-3.3,5.1-1.1,10.3,4.8,11.7c4,0.9,8.2,1.5,12.3,1.3c9.1-0.3,18.2-1.1,27.3-1.8c17-1.1,33.9-2.3,50.8-3.4c14.9-1,29.9-1.9,44.8-2.9
		c4-0.3,8-0.8,12.1-1.2C882.9,369.3,880.4,378.1,877.9,386.9z M372.9,529.8c2.2,0.2,4.5,0.1,6.7,0.2c9.2,0.8,18.5,1.6,27.7,2.4
		c-11.7-18.2-23.4-36.3-35.1-54.5c-16.3-25.3-32.5-50.6-48.8-75.9c-16.9-26.2-33.8-52.4-50.5-78.7c-1.8-2.9-3.1-6.7-3-10.1
		c0-4.6,1.3-9.3,2.5-13.8c3.3-11.9,6.9-23.8,10.5-35.6c3-9.8,6.1-19.6,9.1-29.3c-0.9-0.8-1.8-1.7-2.7-2.5
		c-5.8-4.9-11.6-9.7-17.5-14.5c-5.7,17.4-11.2,34.9-17.3,52.2c-3.9,10.9-13.7,12.8-22.5,4.6c-6.1-5.6-11.9-11.3-17.8-17.1
		c-13-13-25.9-26-38.9-39.1c-10.2-10.3-20.4-20.7-30.6-31.1c-11.9-12.2-23.7-24.4-35.4-36.8c-5-5.3-9.9-10.8-14.8-16.1
		c-1.4,1.5-3.3,2.8-4.2,4.5c-4.4,7.9-5.5,16.5-5.5,25.4c0.3-1.6,0.5-3.2,0.9-5.2c2,2.2,3.9,4.2,5.8,6.2
		c18.1,19.6,36.2,39.3,54.3,58.9c10,10.8,20.1,21.6,30.1,32.4c14.4,15.6,28.6,31.2,43,46.8c9.6,10.4,19.4,20.8,28.9,31.2
		c5.8,6.3,11.5,12.6,16.9,19.3c1.6,2,2.3,5,2.9,7.7c0.6,2.7-0.9,5.2-3.5,5.8c-5.2,1.2-10.5,2.3-15.8,2.5c-5.9,0.2-11.9-0.7-17.8-1.1
		c-16.3-1.1-32.5-2.2-48.8-3.3c-6.5-0.4-13-0.9-19.5-1.3c-15.8-1-31.7-2-47.5-2.9c2.4,9,4.9,18.1,7.3,27.1c0.9-0.4,1.7-1.3,2.6-1.3
		c2.7,0,5.4,0.4,8.1,0.5c13.6,0.9,27.2,1.8,40.8,2.7c17.2,1.1,34.3,2.3,51.5,3.4c15.7,1,31.5,1.9,47.2,2.9
		c9.1,0.6,17.6,3.5,23.3,10.7c8.7,11,17.5,22.1,24.8,34.1c17.3,28.2,33.8,56.9,50.7,85.4c1.5,2.5,0.1,2.5-1.7,2.5
		C370.6,529.4,371.8,529.7,372.9,529.8z M469.6,578.7c0.3-2.5-0.9-3.5-3.3-3.5c-10,0-19.9,0-29.9,0c-0.5,0.7-0.8,1.6-1.4,2.2
		c-6.2,5.8-12.4,11.5-18.6,17.2c-16.3,15-32.7,30-49,45c-17.8,16.4-35.5,32.9-53.4,49.3c-3.4,3.1-6.6,6.5-11.6,7.1
		c-4.5,0.5-8.9,1.2-13.4,1.8c-18,2.7-36,5.3-54,8.1c-18.8,2.8-37.5,5.7-56.3,8.6c-3.6,0.5-3.8,0.3-3.3-3.3c-0.4,0.5-1,0.9-1.1,1.4
		c-0.6,3.7-1.4,7.5-1.4,11.2c0.1,8,0.6,15.9,1,23.9c0.1-2.4,1.9-2.4,3.6-2.6c11.3-1.4,22.5-2.8,33.8-4.3c14.5-1.9,28.9-4,43.4-5.9
		c13-1.8,26.1-3.4,39.1-5.3c9.7-1.5,17.2,1.8,21.5,10.2c10.8,20.7,21.4,41.4,32.1,62.1c7,13.5,13.9,27,20.9,40.6
		c3-3.2,6.1-6.3,8.9-9.7c4.9-6,9.5-12.3,14.2-18.4c-10.6-19.2-21.2-38.5-31.8-57.7c-6.1-11.2-12-22.4-18.4-33.5
		c-5-8.9-4.5-14.6,2.8-21.7c13.2-12.8,26.4-25.5,39.5-38.3c16.8-16.3,33.6-32.7,50.4-49.1c10.6-10.4,21.3-20.8,31.9-31.1
		c0.6-0.6,1.4-1,2.1-1.5c0.2,0.8,0.5,1.6,0.7,2.4C469.2,582.2,469.4,580.4,469.6,578.7z M622.8,833.5c2.7,3.3,5.8,6.2,8.7,9.2
		c4.8-9.3,9.5-18.6,14.3-28c12.8-24.8,25.5-49.7,38.3-74.5c2.9-5.6,7.3-9.7,13.6-10.5c3.8-0.5,7.9,0,11.8,0.5
		c19.3,2.4,38.5,5,57.8,7.5c16.8,2.2,33.6,4.5,50.4,6.8c2.8,0.4,5.6,1.2,8.4,1.9c0.3-2.3,0.6-4.6,0.9-6.9c0.9-8.4-0.2-16.7-1.8-24.9
		c-3.6-0.4-7.1-0.8-10.7-1.3c-12-1.7-24-3.5-36-5.3c-12.3-1.8-24.7-3.7-37-5.5c-14.6-2.1-29.1-4.1-43.7-6.4
		c-2.5-0.4-5.1-1.8-7.2-3.3c-3.1-2.3-5.7-5.1-8.5-7.7c-18.1-16.6-36.2-33.2-54.3-49.8c-7.5-6.9-15-14-22.5-21
		c-13.1-12.1-26.2-24.1-39.3-36.1c-0.7-0.6-1-1.6-1.5-2.5l0,0c-0.2-0.2-0.5-0.4-0.7-0.6c-9.5,0-19-0.1-28.5,0
		c-4.7,0-4.9,0.5-4.7,5.4c1.1,0.8,2.3,1.4,3.3,2.3c21.8,21.3,43.5,42.6,65.4,63.8c9.5,9.3,19.2,18.4,28.8,27.7
		c9.2,8.8,18.3,17.7,27.3,26.7c7.4,7.3,8.2,12.3,3.4,21.4c-3.5,6.6-7.2,13-10.7,19.5c-11.2,20.5-22.3,40.9-33.5,61.4
		c-2,3.7-4.4,7.3-6.7,10.9C612.8,820.7,617.6,827.2,622.8,833.5z"/>
</g>
<g id="Logo_Left">
	<path class="st5" d="M469,575.2c0,0-88.2-4.4-169.3,26c-52.6,19.8-107,56-125.3,111.5c-7.9,24,4.8,81.1,41.2,117.5
		c51.4,51.4,93.6,50.7,123,36c55.2-27.6,107.2-128.7,124.3-197.8C472.5,629.9,468.5,592.3,469,575.2z"/>
	<g>
		
			<linearGradient id="SVGID_3_" gradientUnits="userSpaceOnUse" x1="-1217.5618" y1="6283.1875" x2="-1101.3773" y2="6216.1084" gradientTransform="matrix(0.6993 -0.7148 0.7148 0.6993 -3316.0283 -4518.8057)">
			<stop  offset="0" style="stop-color:#36BDBA"/>
			<stop  offset="0.93" style="stop-color:#39D8AA"/>
		</linearGradient>
		<path class="st6" d="M385.8,709.5l65.1-0.7l-31.7,32.4l-107.4,1.2l32.9-33.6c7.1-7.3,10.9-16.8,10.8-27
			c-0.1-10.1-4.2-19.6-11.4-26.7c-7.3-7.1-16.8-10.9-27-10.8s-19.6,4.2-26.7,11.4l-10.7,10.9l-53.7,0.6l36.1-36.8
			c29.3-30,77.4-30.5,107.4-1.2C391.5,650.6,399.3,677.2,385.8,709.5z"/>
		
			<linearGradient id="SVGID_4_" gradientUnits="userSpaceOnUse" x1="-1320.4481" y1="6310.6426" x2="-1225.119" y2="6215.314" gradientTransform="matrix(0.6993 -0.7148 0.7148 0.6993 -3316.0283 -4518.8057)">
			<stop  offset="0.2" style="stop-color:#2576F4"/>
			<stop  offset="1" style="stop-color:#3298DA"/>
		</linearGradient>
		<path class="st7" d="M223.2,735.8l-65.1,0.7l31.7-32.4l107.4-1.2l-32.9,33.6c-7.1,7.3-10.9,16.8-10.8,27
			c0.1,10.1,4.2,19.6,11.4,26.7c7.3,7.1,16.8,10.9,27,10.8s19.6-4.2,26.7-11.4l10.7-10.9l53.7-0.6l-36,36.8
			c-29.3,30-77.4,30.5-107.4,1.2C217.5,794.7,209.8,768,223.2,735.8z"/>
	</g>
</g>
</svg>
