<?xml version="1.0" encoding="utf-8"?>
<!-- Generator: Adobe Illustrator 23.0.6, SVG Export Plug-In . SVG Version: 6.00 Build 0)  -->
<svg version="1.1" id="Layer_1" xmlns="http://www.w3.org/2000/svg" xmlns:xlink="http://www.w3.org/1999/xlink" x="0px" y="0px"
	 viewBox="0 0 1000 1000" style="enable-background:new 0 0 1000 1000;" xml:space="preserve">
<style type="text/css">
	.st0{fill:url(#SVGID_1_);}
	.st1{fill:url(#SVGID_2_);}
	.st2{fill:#091440;}
	.st3{fill:url(#SVGID_3_);}
	.st4{fill:url(#SVGID_4_);}
</style>
<g id="Decred">
	
		<linearGradient id="SVGID_1_" gradientUnits="userSpaceOnUse" x1="70.4856" y1="3558.2002" x2="474.3272" y2="3325.042" gradientTransform="matrix(1 0 0 1 0 -2998)">
		<stop  offset="0" style="stop-color:#36BDBA"/>
		<stop  offset="0.93" style="stop-color:#39D8AA"/>
	</linearGradient>
	<path class="st0" d="M470.25,453.15c-0.36-6.53-0.64-13.1-0.77-19.65c-0.19-9.9-0.13-19.98,0.19-29.98
		c0.28-11.02,0.89-20.93,1.84-30.22c1.05-10.47,2.7-21,4.15-30.05l1.24-7.4c0.15-0.97,0.35-2.1,0.59-3.33L405,405
		c-23.94-71.4-78.87-105-147-105c-92.78,0-168,75.22-168,168v126l84-84v-42c0-22.44,8.74-43.53,24.6-59.4
		c15.87-15.87,36.96-24.6,59.4-24.6s43.53,8.74,59.4,24.6c15.87,15.87,24.6,36.96,24.6,59.4v113.4L470.25,453.15z"/>
	
		<linearGradient id="SVGID_2_" gradientUnits="userSpaceOnUse" x1="142.0367" y1="3854.0366" x2="465.5917" y2="3530.4817" gradientTransform="matrix(1 0 0 1 0 -2998)">
		<stop  offset="0.2" style="stop-color:#2576F4"/>
		<stop  offset="1" style="stop-color:#3298DA"/>
	</linearGradient>
	<path class="st1" d="M475.76,727.58c-0.94-10.02-1.62-20.11-2.03-29.99c-0.51-11.42-0.47-21.47,0.13-30.69
		c0.55-9.16,1.61-18.37,2.64-27.27c1.24-10.7,2.41-20.81,2.76-30.96c0.6-17.3-0.04-35.94-1.96-56.99l-0.75-8.24L426,594v42
		c0,22.36-8.68,43.38-24.43,59.23c-15.27,15.35-36.02,24.28-57.67,24.75c-23.87,0.52-46.36-8.83-62.82-26.15
		C266.04,678.01,258,656.8,258,634.97V522.6l-168,168V804l105-105c24.44,72.88,81.16,106.38,151.26,104.96
		c53.53-1.09,100.61-27.54,130.39-67.64C476.33,733.46,476.04,730.56,475.76,727.58z"/>
</g>
<g id="Wing_right">
	<path class="st2" d="M526,512.65c7.22,1.3,14.35,3.02,21.48,4.77c7.11,1.83,14.18,3.83,21.22,5.95
		c14.08,4.25,27.97,9.19,41.65,14.76c27.3,11.21,53.87,24.97,77.97,43.09c11.99,9.1,23.38,19.29,33.3,31.08
		c4.95,5.9,9.59,12.14,13.62,18.84c0.5,0.84,1.02,1.67,1.51,2.51l1.43,2.57c0.98,1.7,1.83,3.47,2.73,5.22
		c0.91,1.74,1.66,3.57,2.5,5.36l0.31,0.69l0.33,0.81c0.23,0.55,0.4,1.06,0.61,1.59c0.37,1.04,0.7,2.06,1.01,3.07
		c2.37,7.98,3.53,15.58,4.33,23.31c0.77,7.71,1.03,15.44,0.74,23.24c-0.32,7.81-1.24,15.69-3.23,23.66c-1,3.98-2.31,8-4.07,11.99
		c-1.8,3.99-4.07,7.99-7.22,11.7c-3.1,3.71-7.27,7.03-12.05,9.24c-4.8,2.17-10.06,3.11-14.91,3.01l-1.82-0.05l-1.77-0.15l-2.63-0.25
		c-1.6-0.14-3.21-0.24-4.81-0.27c-3.2-0.08-6.39,0.08-9.54,0.44c-6.32,0.69-12.52,2.36-18.55,4.81c-6.04,2.45-11.86,5.74-17.63,9.49
		c-5.78,3.75-11.42,8.03-17.44,12.44c-3.02,2.2-6.15,4.45-9.62,6.58c-3.5,2.11-7.32,4.23-12.14,5.62c-2.4,0.68-5.07,1.14-7.9,1.11
		c-2.82-0.01-5.75-0.58-8.36-1.6c-2.62-1.01-4.92-2.41-6.89-3.93l-1.42-1.16l-1.11-1.01c-0.73-0.68-1.5-1.33-2.19-2.04
		c-5.73-5.54-10.7-11.61-15.12-17.92c-4.45-6.3-8.27-12.9-11.78-19.6c-3.47-6.72-6.63-13.53-9.42-20.47
		c-5.66-13.84-10.15-28.01-13.97-42.28c-3.76-14.29-6.86-28.7-9.26-43.21c-1.2-7.25-2.28-14.52-3.2-21.8
		c-0.84-7.29-1.67-14.58-2.09-21.9c6.38,28.58,14.17,56.72,23.92,83.99c2.46,6.81,5.01,13.56,7.78,20.21
		c2.76,6.65,5.65,13.22,8.8,19.64c3.14,6.42,6.49,12.7,10.09,18.77c3.63,6.05,7.54,11.88,11.77,17.34
		c4.23,5.46,8.83,10.52,13.83,14.91c0.61,0.57,1.27,1.06,1.9,1.6l0.95,0.8l0.73,0.54c0.95,0.67,1.85,1.12,2.65,1.38
		c0.81,0.26,1.53,0.36,2.36,0.32c0.83-0.04,1.79-0.22,2.88-0.59c2.2-0.72,4.83-2.18,7.5-3.96c2.68-1.8,5.46-3.87,8.28-6.05
		c5.65-4.37,11.53-9.11,17.89-13.49c6.35-4.41,13.26-8.43,20.71-11.63c7.45-3.18,15.45-5.5,23.65-6.53
		c4.09-0.52,8.23-0.72,12.33-0.65c2.05,0.03,4.1,0.14,6.13,0.31l1.52,0.14l1.3,0.11l0.96,0.08l0.92,0.02c4.92,0,8.31-1.6,11.55-5.33
		c3.23-3.71,5.68-9.46,7.24-15.62c1.61-6.2,2.41-12.9,2.81-19.68c0.37-6.79,0.25-13.7-0.32-20.55c-0.28-3.42-0.69-6.83-1.21-10.17
		c-0.53-3.33-1.16-6.63-1.98-9.64c-0.21-0.74-0.42-1.47-0.65-2.16c-0.12-0.32-0.22-0.69-0.34-0.98l-0.17-0.46l-0.24-0.56
		c-0.68-1.54-1.26-3.11-2.01-4.63c-0.73-1.52-1.41-3.06-2.22-4.55l-1.17-2.25c-0.4-0.75-0.84-1.48-1.25-2.22
		c-3.38-5.89-7.2-11.61-11.46-17.06c-4.25-5.46-8.94-10.63-13.85-15.63c-4.92-4.99-10.14-9.75-15.58-14.3
		c-21.75-18.23-46.56-33.26-72.3-46.46C580.47,533.83,553.62,522.38,526,512.65z"/>
	<path class="st2" d="M530,392c7.35-7.95,15.01-15.61,22.69-23.25c7.74-7.58,15.6-15.05,23.54-22.42
		c7.93-7.4,16.05-14.58,24.24-21.71c8.19-7.11,16.49-14.12,24.89-21.01c16.85-13.72,34.18-26.91,52.13-39.32
		c8.96-6.22,18.11-12.21,27.42-17.96c9.32-5.75,18.8-11.28,28.54-16.4c19.46-10.25,39.82-19.32,61.64-25.19
		c10.9-2.91,22.19-5.03,33.84-5.55c11.61-0.54,23.66,0.55,35.29,4.24c1.45,0.45,2.89,0.97,4.32,1.5c0.72,0.26,1.42,0.57,2.13,0.85
		l1.06,0.43c0.37,0.16,0.81,0.37,1.21,0.56c3.26,1.52,6.47,3.64,9.26,6.34c2.78,2.7,5.03,5.97,6.63,9.33
		c1.62,3.38,2.61,6.83,3.2,10.17c1.17,6.69,0.96,12.94,0.38,18.89c-0.63,5.94-1.7,11.62-2.96,17.15
		c-2.56,11.05-5.86,21.55-9.1,31.91c-3.25,10.35-6.54,20.54-9.27,30.64c-1.37,5.04-2.62,10.06-3.56,15.02
		c-0.47,2.47-0.87,4.93-1.17,7.36c-0.14,1.21-0.27,2.41-0.36,3.6l-0.29,3.95c-0.74,10.7-1.33,21.44-1.91,32.2l-1.73,32.39
		c-0.61,10.83-1.24,21.71-2.23,32.64c-0.98,10.93-2.19,21.92-4.19,33.01c-1,5.54-2.22,11.11-3.83,16.67
		c-1.61,5.57-3.6,11.16-6.34,16.65c-2.74,5.47-6.26,10.91-11.11,15.54c-1.19,1.17-2.49,2.25-3.84,3.28
		c-1.39,1.05-2.94,2.07-4.42,2.87c-2.99,1.66-5.97,2.8-8.92,3.77c-5.89,1.88-11.64,2.91-17.33,3.65c-5.69,0.73-11.3,1.1-16.89,1.31
		c-11.16,0.4-22.18,0.01-33.13-0.66c-10.95-0.68-21.83-1.71-32.65-3c-21.65-2.54-43.12-5.95-64.47-9.84
		c-10.67-1.98-21.31-4.07-31.93-6.26c-10.61-2.19-21.22-4.43-31.77-6.89c-10.56-2.43-21.1-4.93-31.6-7.53
		c-10.49-2.68-20.99-5.34-31.41-8.29c10.67,1.83,21.33,3.66,32.01,5.35c10.67,1.75,21.34,3.46,32.03,5.06
		c10.69,1.58,21.36,3.21,32.05,4.71s21.39,2.91,32.09,4.2c21.4,2.64,42.82,4.92,64.22,6.47c21.37,1.46,42.84,2.41,63.75,1.03
		c5.21-0.36,10.38-0.88,15.39-1.69c5-0.81,9.9-1.89,14.27-3.46c2.16-0.79,4.22-1.68,5.93-2.7c0.89-0.51,1.59-1.01,2.33-1.6
		c0.78-0.64,1.55-1.3,2.27-2.05c2.91-2.92,5.32-6.72,7.3-10.96c3.96-8.53,6.22-18.58,7.9-28.76c1.65-10.23,2.64-20.78,3.39-31.39
		c1.46-21.26,2.17-42.85,3.12-64.5c0.48-10.83,1.08-21.69,1.78-32.56l0.28-4.14c0.11-1.51,0.27-2.99,0.43-4.47
		c0.35-2.94,0.82-5.82,1.35-8.66c1.06-5.68,2.4-11.16,3.85-16.55c2.94-10.77,6.35-21.15,9.61-31.41c3.26-10.25,6.44-20.4,8.83-30.41
		c1.2-4.99,2.18-9.95,2.74-14.76c0.54-4.79,0.65-9.45-0.02-13.43c-0.32-1.99-0.85-3.78-1.55-5.28c-0.71-1.51-1.56-2.78-2.64-3.86
		c-1.09-1.08-2.42-2-4.04-2.81c-0.21-0.1-0.38-0.2-0.62-0.31l-0.81-0.35c-0.54-0.23-1.07-0.48-1.62-0.68
		c-1.1-0.42-2.19-0.85-3.32-1.22c-8.96-3.03-18.75-4.19-28.72-3.9c-9.97,0.28-20.12,1.85-30.16,4.27c-10.05,2.41-20,5.7-29.82,9.45
		c-9.83,3.75-19.51,8.04-29.06,12.68c-9.54,4.66-18.98,9.63-28.28,14.87c-9.3,5.24-18.47,10.77-27.57,16.44
		c-18.16,11.39-35.93,23.52-53.38,36.13c-8.75,6.28-17.4,12.7-25.98,19.23c-8.58,6.53-17.04,13.22-25.52,19.91
		c-8.46,6.71-16.83,13.54-25.12,20.46C546.38,377.87,538.16,384.89,530,392z"/>
	
		<linearGradient id="SVGID_3_" gradientUnits="userSpaceOnUse" x1="518.4356" y1="3630.9402" x2="725.7271" y2="3697.8198" gradientTransform="matrix(1 0 0 1 0 -2998)">
		<stop  offset="0.2893" style="stop-color:#2576F4"/>
		<stop  offset="0.7544" style="stop-color:#3092DF"/>
		<stop  offset="0.8516" style="stop-color:#3298DA"/>
	</linearGradient>
	<path class="st3" d="M545.63,539.68c0,0,84.19,30.81,125.37,65.32c40.36,33.82,56.5,92.5,40.42,113.82
		c-18.92,25.08-27.17-26.64-50.96-61.82C627.88,608.83,545.63,539.68,545.63,539.68z M541.48,597.5c0,0,5.37,41.73,15.47,83.81
		c9.9,41.24,45.5,101.69,63.99,77.21c14.24-18.85-5.88-36.36-22.71-66.15C575.2,651.59,541.48,597.5,541.48,597.5z M547.5,572.51
		c0,0,33.18,56.41,59.84,101.09c17.7,29.66,33.05,54.71,45.11,52.6c29.81-5.21,4.18-50.32-23.41-83.2
		C594.74,602.12,547.5,572.51,547.5,572.51z"/>
	
		<linearGradient id="SVGID_4_" gradientUnits="userSpaceOnUse" x1="612.5842" y1="3510.677" x2="907.3457" y2="3263.343" gradientTransform="matrix(1 0 0 1 0 -2998)">
		<stop  offset="0" style="stop-color:#36BDBA"/>
		<stop  offset="0.4983" style="stop-color:#39D8AA"/>
	</linearGradient>
	<path class="st4" d="M599,379.34c0,0,77.05-75.33,128.92-110.54c50.83-34.51,107.62-50.24,128.25-29.61
		c25.92,25.92-34.33,51.55-81.41,67.03C710.3,327.43,599,379.34,599,379.34z M615.45,489.72c0,0,20.61,12.63,83.4,26.43
		c61.53,13.52,117.31,17.66,123.42-11.62c5.39-25.82-33.52-26.54-79.04-24.57C686.35,482.42,615.45,489.72,615.45,489.72z
		 M745.82,399.81c48.59-6.88,80.46-10.66,88.09-53.13c7.69-42.75-75.33-17.04-129.78,10.12c-55.56,27.71-87.87,56.27-87.87,56.27
		S694.4,407.09,745.82,399.81z M747.02,463.14c38.91,3.47,85.59,11.34,74.89-29.76c-5.91-22.71-38.16-23.25-80.13-17.39
		c-53.21,7.42-117.59,36.34-117.59,36.34S693.33,458.36,747.02,463.14z M550.46,489.79c-2.55,1.53-3.14,3.02-3.51,4.98
		c-0.44,2.31-0.76,5.97,2.02,8.33c3.89,3.31,51.54,4.06,51.54,4.06s-14.47-11.78-22.06-15.26c-3.13-1.43-11.83-3.2-17.04-3.38
		C556.82,488.38,553.01,488.26,550.46,489.79z M553.35,465.12c-2.52,1.71-2.4,5.04-2.45,7.75c-0.05,2.4,0,5.41,3.46,6.88
		c2.21,0.94,13.24,0.13,26.21-0.65c10.78-0.64,29.96-5.4,29.96-5.4s-32.38-9.93-37.74-9.78
		C568.06,464.03,555.88,463.4,553.35,465.12z M577.34,454.67c5.33-0.8,35.03-17.81,35.03-17.81s-19.82-2.01-30.59-0.82
		c-12.95,1.43-22.33,2.72-25.04,3.95c-3.64,1.66-3.89,4.78-3.39,7.51c0.56,3.08,2.28,6.42,5.09,7.92
		C561.24,456.93,572.66,455.37,577.34,454.67z M554.26,418.3c-1.38,3.1-0.79,5.88,0.76,8.71c1.37,2.51,2.41,3.23,6.6,3.76
		c2.87,0.36,14.37-3.75,26.2-11.38c9.85-6.35,25.21-21.37,25.21-21.37s-36.05,7.58-42.12,9.66
		C566.11,409.34,555.64,415.2,554.26,418.3z M547.93,394.88c-1.1,3.5-1.25,5.69,0.52,7.45c2.2,2.2,3.59,3.25,6.81,3.25
		c2.94,0,14.3-8.17,25.48-18.47c9.3-8.57,23.1-28.49,23.1-28.49s-34.22,16.79-39.76,21.14
		C559.75,383.17,549.03,391.37,547.93,394.88z"/>
</g>
<g id="Body">
	<path class="st2" d="M501.5,316c1.94,2.44,3.31,4.89,4.46,7.33c1.15,2.44,2.04,4.89,2.74,7.33c0.73,2.44,1.19,4.89,1.58,7.33
		l1.22,7.33c1.57,9.77,3.07,19.54,4.05,29.31c1,9.77,1.53,19.54,1.78,29.31c0.31,9.77,0.38,19.54,0.18,29.31
		c-0.37,19.54-2.13,39.08-3.33,58.63c-0.6,9.77-1.06,19.54-1.86,29.31l-0.58,7.33l-0.66,7.33l-1.33,14.66
		c-1.78,19.54-2.69,39.08-2.01,58.63c0.68,19.54,4.26,39.08,5.42,58.63c0.64,9.77,0.55,19.54,0.12,29.31
		c-0.4,9.77-1.07,19.54-1.98,29.31s-2.09,19.54-3.66,29.31c-1.6,9.77-3.41,19.54-6.14,29.31h-3c-2.73-9.77-4.54-19.54-6.14-29.31
		c-1.56-9.77-2.74-19.54-3.66-29.31s-1.58-19.54-1.98-29.31c-0.44-9.77-0.52-19.54,0.12-29.31c1.17-19.54,4.74-39.08,5.42-58.63
		c0.68-19.54-0.22-39.08-2.01-58.63l-1.33-14.66l-0.66-7.33l-0.58-7.33c-0.8-9.77-1.26-19.54-1.86-29.31
		c-1.2-19.54-2.96-39.08-3.33-58.63c-0.19-9.77-0.13-19.54,0.18-29.31c0.25-9.77,0.78-19.54,1.78-29.31
		c0.98-9.77,2.48-19.54,4.05-29.31l1.22-7.33c0.39-2.44,0.85-4.89,1.58-7.33c0.7-2.44,1.59-4.89,2.74-7.33
		c1.15-2.44,2.52-4.89,4.46-7.33H501.5z"/>
	<path class="st2" d="M515,297c2.28-9.65,5.51-19.09,9.38-28.27c3.95-9.15,8.61-18.01,13.87-26.51s11.19-16.6,17.55-24.33
		c3.19-3.86,6.52-7.6,9.92-11.28c1.73-1.81,3.44-3.64,5.19-5.43s3.56-3.53,6.19-4.37c1.2-0.38,2.47,0.28,2.85,1.48
		c0.16,0.5,0.13,1.01-0.03,1.46l-0.02,0.06c-0.94,2.59-2.71,4.27-4.54,5.91c-1.78,1.68-3.51,3.41-5.27,5.11
		c-3.46,3.46-6.85,7-10.12,10.65c-6.57,7.27-12.69,14.94-18.33,22.97c-5.65,8.03-10.74,16.46-15.17,25.25
		C521.95,278.46,518.18,287.61,515,297z"/>
	<path class="st2" d="M485,297c-3.18-9.39-6.95-18.54-11.47-27.3c-4.43-8.8-9.53-17.23-15.17-25.25
		c-5.64-8.03-11.76-15.7-18.33-22.97c-3.27-3.65-6.66-7.18-10.12-10.65c-1.76-1.7-3.49-3.43-5.27-5.11
		c-1.83-1.64-3.59-3.31-4.54-5.91l-0.02-0.06c-0.43-1.18,0.18-2.48,1.36-2.91c0.49-0.18,1-0.18,1.46-0.03
		c2.63,0.83,4.44,2.58,6.19,4.37s3.46,3.62,5.19,5.43c3.4,3.68,6.72,7.42,9.92,11.28c6.36,7.73,12.29,15.82,17.55,24.33
		c5.26,8.5,9.92,17.36,13.87,26.51C479.49,277.91,482.72,287.35,485,297z"/>
</g>
</svg>
